<?xml version="1.0" encoding="utf-8"?>
<!-- Generator: Adobe Illustrator 19.0.0, SVG Export Plug-In . SVG Version: 6.00 Build 0)  -->
<svg version="1.1" id="Layer_1" xmlns="http://www.w3.org/2000/svg" xmlns:xlink="http://www.w3.org/1999/xlink" x="0px" y="0px"
	 width="1400px" height="980px" viewBox="0 0 1400 980" style="enable-background:new 0 0 1400 980;" xml:space="preserve">
<style type="text/css">
	.st0{clip-path:url(#XMLID_27_);}
	.st1{fill:url(#XMLID_37_);}
	.st2{fill:#BBBCD0;}
	.st3{fill:#E7CACE;}
	.st4{fill:#3F2927;}
	.st5{fill:#6C514C;}
	.st6{fill:#7C6966;}
	.st7{fill:#8E7B77;}
	.st8{fill:#573E3B;}
	.st9{fill:#C3AAAE;}
	.st10{fill:#6C504C;}
	.st11{fill:#F7F0F1;}
	.st12{fill:url(#XMLID_40_);}
	.st13{fill:#F8F7FC;}
	.st14{fill:#EDD4CA;}
	.st15{fill:url(#XMLID_60_);}
	.st16{fill:url(#XMLID_239_);}
	.st17{fill:#282629;}
	.st18{fill:#E0A52F;}
	.st19{fill:#F1B576;}
	.st20{fill:#CE4583;}
	.st21{fill:#D0944C;}
	.st22{fill:#F1FFE1;}
	.st23{fill:#FFFFFF;}
	.st24{fill:none;}
</style>
<g id="XMLID_24_">
	<defs>
		<rect id="XMLID_22_" width="1400" height="980"/>
	</defs>
	<clipPath id="XMLID_27_">
		<use xlink:href="#XMLID_22_"  style="overflow:visible;"/>
	</clipPath>
	<g id="XMLID_18_" class="st0">
		<linearGradient id="XMLID_37_" gradientUnits="userSpaceOnUse" x1="700" y1="-17.2316" x2="700" y2="537.7671">
			<stop  offset="0" style="stop-color:#A9E2E9"/>
			<stop  offset="1" style="stop-color:#F1D3C8"/>
		</linearGradient>
		<rect id="XMLID_110_" class="st1" width="1400" height="980"/>
		<g id="XMLID_356_">
			<g id="XMLID_17_">
				<path id="XMLID_264_" class="st2" d="M-12.9,785.3c26.6-26,123.4-65.6,142.3-6.1c13.9-12.7,14.9-30.4,36.1-39.5
					c16.8-7.3,43.4-10.8,58.9,3.3c25.9,23.5,0.5,46.9-13.6,67.2c30.7-18.3,80.4-35.7,82,15.9c25-26.2,28,21.4,31.9,35.5
					c28-20.6,37.5-49.6,75-62.8c21.8-7.6,53.7-13,76.8-5.7c28.7,9,36,28.8,34,57.8c45.8-16.9,59.7,11.6,60.1,53
					c25.7-9.9,97.8-30.7,108.8,8.6c22,0.3,41.3-2.8,61.8,5.7c6.7,2.8,20.6,17.2,30.6,22c16.5,7.9,29.3,10.3,47.6,13.4
					c49.3,8.4,97.9,10.9,147.2,16c18.8,2,80.9-1,90.1,11.7c-31.7,23.1-119.7,15.8-159.2,12.2c-73.1-6.5-145.8-13.7-219.1-18.2
					c-64.5-3.9-130.7-8.8-192.3-20.9c-82.1-16.2-175.3-6.7-258.7-11.7c49.9,1,98.3,32.7,143.9,43c30,6.8,59.6,16.6,88.8,21.5
					c35,5.8,70,1.2,104.8,11.6c-17.2,10.9-59.5,1.8-80.9-0.1c-62-5.7-124.3-8.6-186.3-14.3c-71.9-6.5-143.7-3.3-212.9-23.3
					c-48.5-14-105.4-21-155-27.7c3.5-87.3,37.2-136.9,84.5-199.4"/>
				<g id="XMLID_320_">
					<path id="XMLID_336_" class="st2" d="M-12.9,785.3c2.7-2.6,6.1-5.4,10.1-8.2c5.5-7.5,11.2-15.2,17.2-23L-12.9,785.3z"/>
					<path id="XMLID_337_" class="st3" d="M467.9,864.5c-2.5-7.1-13.6-18.5-23.4-23.6c14.9,21.8,19.1,47.1,13.1,71.5
						c11.9,4.2,24.6,6.3,35.2,13c-4.7-13.8-7.2-28.2-12.4-41.8c7,5.8,10.9,14.7,14.5,22.5c1.4-11.1-0.1-23.4-5-33.4
						c7.9-11.3,24.8-14.4,38.1-14.5c31-0.1,32.9,20.2,32.9,49c-2.9-14.5-22-23.2-32.7-13c18.1,8.3,18.5,26.4,17.9,42.9
						c8.9,0.3,18.9,2.9,27.1,3.3c0.8-13.5-2.7-21.9,5.9-29.3c7.4-6.4,32.2-6.1,41.9-5.2c25.5,2.2,37.1,14.7,45.1,39.8
						c19.3-13.7,3.3-29.2,37.4-27.3c18,1,40.8,11.6,32.3,32.6c20.8-3,40.1-0.4,61.6,2.6c18,2.5,36.5,3.9,55.1,4.9
						c-11-1.4-22-3-33.1-4.8c-18.3-3.1-31-5.5-47.6-13.4c-10-4.8-23.9-19.2-30.6-22c-20.5-8.5-39.8-5.4-61.8-5.7
						c-11-39.3-83.1-18.5-108.8-8.6c-0.3-41.4-14.2-69.8-60.1-53c2-29-5.3-48.7-34-57.8c-13.6-4.3-30.2-4.2-46-1.9
						C467.4,795.1,478.6,834.2,467.9,864.5z"/>
					<path id="XMLID_339_" class="st3" d="M91.6,792.4c-8.2-7.7-15.2-14.6-26.6-17.4c21.5,17.4,25.1,47.2,25.3,72.4
						c5.9-4.8,7.7-14.8,7.2-23.3c10.7,15.3,10.9,35.8,7,52.6c18.2-19.9,33.9-30.2,33-63.2c-0.3-10.1-2.1-18.1-6.1-27.2
						c28.2-50.3,93.9-53.4,84.8,6.7c-0.9-9.7-10.7-16.6-17-23.9c0.5,31.3-3.6,38.6-33.9,68c13.2-0.8,22.9-14.4,31.8-21.9
						c-2.8,3.8-5.4,9.4-8.8,13.3c20.9-11.1,37.2-32.3,65.3-24.9c32.4,8.5,16.2,53.1-4.9,64.8c24.8,2,47.6-20.8,48.5-44.3
						c10.9,21.9,6.7,56-3.4,76c11.1-8.1,19.3-18.9,25.2-32.1c1.8-4,3.3-7.9,4.5-11.9c-3.5-18-8.4-53.2-30.6-29.9
						c-1.6-51.7-51.3-34.2-82-15.9c14-20.3,39.4-43.7,13.6-67.2c-15.5-14.1-42.1-10.6-58.9-3.3c-21.2,9.2-22.2,26.8-36.1,39.5
						c-9.3-29.3-37.5-34.6-66.9-29.3C78.5,758.1,89.4,768.8,91.6,792.4z"/>
					<path id="XMLID_340_" class="st2" d="M227.6,942.7c2.6,0.2,5.2,0.3,7.9,0.4C232.8,942.9,230.2,942.8,227.6,942.7z"/>
				</g>
				<path id="XMLID_301_" class="st3" d="M221.5,876.3c8.5-4.3,22.9-16.5,23.6-27.1c0.9,16.2-10.4,24.4-24.4,27
					C220.4,876.9,220.9,874.8,221.5,876.3z"/>
				<path id="XMLID_304_" class="st3" d="M136.7,872.9c8.7-6.5,21.8-14.5,21.2-27.8c2.4,10.8,3.3,15.9-6.9,22.2
					C146.5,870.2,140.2,871.3,136.7,872.9z"/>
				<path id="XMLID_312_" class="st3" d="M449.3,881.9c-0.1,12.8-3.4,22.6-13.7,30.2c18.7,3.2,23.3-22.2,13.8-34.2
					C448.9,879.3,449.5,880.4,449.3,881.9z"/>
				<g id="XMLID_315_">
					<path id="XMLID_109_" class="st2" d="M-12.9,785.3c2.7-2.6,6.1-5.4,10.1-8.2c5.5-7.5,11.2-15.2,17.2-23L-12.9,785.3z"/>
					<path id="XMLID_326_" class="st3" d="M267,963.3c-7.6-0.6-18.5-2.1-24.3,2.4c10.2,4.8,31.9-2.7,37.1,13.5
						c-2.1,1.8-4.3,3.6-7.5,3.6c8.5,5.4,39-1.2,28.6-11.6c14.1,8.1,30.5,12.7,46.2,15.5c34.9,6.4,70.9,15.9,106.4,19.3
						c-27-5.1-54.3-14-82-20.3c-38.5-8.7-78.9-32.6-120.6-40.5c-24.9-0.4-48.6,4.5-73.5,4.2C203.2,966.8,239.6,949.5,267,963.3z"/>
					<path id="XMLID_107_" class="st2" d="M227.6,942.7c2.6,0.2,5.2,0.3,7.9,0.4C232.8,942.9,230.2,942.8,227.6,942.7z"/>
				</g>
			</g>
			<g id="XMLID_12_">
				<path id="XMLID_267_" class="st2" d="M115,658.7c17.7-4.9,44.9-2.1,59.2,9.6c4.4,3.6,0.8,9.6,8.8,14.4c8.1,4.9,20.5,2.4,29.4,6
					c6.7,2.7,6.8,7.5,19.3,9.9c15,2.9,31.4,0.1,45.5,3.5c8.3,2.1,18.5,6.5,28.6,8.3c21.2,3.6,42.2,8.6,63.5,11.4
					c17.4,2.3,42.6,1,55.8,13.1c-14.8,9.9-50.6-1.2-68.1-4c-46.2-7.4-92.3-8.7-138.5-14.9c-39.4-5.3-82.9-13-121.3-22
					c-51.5-12-109.2-18.8-158.8-39.5c-8.5-3.5-41.4-9-37.9-23.3c2.2-8.9,69.7-12,75.2-11.7c11.3,0.6,14.8,2.2,25.3,5
					c24.8,6.5,47.7,9.6,73.2,13.9c11.5,2,34.6,4,39.1,15.9C117.7,655.2,122.6,656.7,115,658.7z"/>
				<g id="XMLID_358_">
					<path id="XMLID_359_" class="st3" d="M160.1,673.7c-5.7-0.7-11.4,0.9-15.7,4.5c9,0.8,17-1,24.8,5.4c4.3,3.6,6.1,8.4,9.3,12.4
						c0.6-3.4,1.7-6.7,1.4-10.3c1.3,2,2.4,4.2,3.4,6.3c-0.1-0.9,0.7-2.9,0.7-4.2c7.1-0.3,18.5,1.2,24.7,5.4c6.2,4.2,6.6,10,9,16.1
						c3.2-1.3,3.8-5.6,3.4-9c7.6,1.1,8.7,6.8,17.5,5.9c12.5-1.3,24.4-0.8,37.2,1.6c20.4,3.9,40.4,8.4,61.1,10.6
						c8,0.9,16.2,1.6,24.3,2.2c-18.6-2.9-37-7.1-55.5-10.2c-10.1-1.7-20.3-6.2-28.6-8.3c-14-3.5-30.4-0.6-45.5-3.5
						c-12.5-2.4-12.5-7.2-19.3-9.9c-9-3.6-21.3-1.1-29.4-6c-8-4.8-4.3-10.8-8.8-14.4c-5.7-4.6-13.4-7.9-21.7-9.8
						C156.6,661.8,159.3,666.6,160.1,673.7z"/>
				</g>
			</g>
			<g id="XMLID_313_">
				<path id="XMLID_8_" class="st2" d="M1347.5,850.4c-21.6-6.8-114.6-41.7-109.5,10c-28,1.8-48-11.9-76.3-2.5
					c-35.3,11.7-44,13.5-84.8,7c-16.4-2.6-32.5-3.6-49-4.5c-36.3-1.9-77.1-6.3-112.4,1.9c-6.5,1.5-5.6,11.1,1.1,12.1
					c21.8,3.4,51.9-0.2,68.3,2.7c53.3,9.3,108.4,17.9,162.5,22.5c60.3,5.2,114,24.1,173.8,19.9c17-1.2,66.3,10.4,80.7,2.1
					c26.4-15.2,11.5-47.8-13.8-56.3C1373.2,860.4,1355,861.7,1347.5,850.4z"/>
				<g id="XMLID_362_">
					<path id="XMLID_365_" class="st3" d="M1236.1,873.1c9.4,3.8,13.5,9.7,19.8,16.8c0.4-4.8-1-10.9-3.7-15c-2.1-3.2-6.3-4.8-8-7.4
						c-3.4-5.2-5.2-12.1,1-17.4c10.2-8.7,35.4-6.9,47.4-3.2c37.1,11.5,68,40.6,102.3,58.3c-1.9-12.9-8-27.9-16.4-42.2
						c-12.5-2.5-25.1-3.6-31.1-12.5c-21.6-6.8-114.6-41.7-109.5,10c-24.2,1.5-42.4-8.4-65.1-5.2c11.1,2.9,20.9,9.3,32.4,13.2
						C1215.2,871.9,1226,869.1,1236.1,873.1z"/>
				</g>
			</g>
			<g id="XMLID_314_">
				<path id="XMLID_3_" class="st2" d="M1402.5,944.9c-24.3-2.5-48-1.7-72.4-4.3c-16.6-1.8-34.7-6.2-46.4,6.8
					c-33.1-11.5-58.7,4.8-90.9,2.5c-19.5-1.4-38.4-2.8-57.8-2.7c-24.6,0.1-51-7.1-75.1-5c29.9,4.5,59,11.7,89.4,15.1
					c22.1,2.4,43.7,1.4,65.8,3.6c31.2,3,61.9,7.1,93,11.7c20.4,3.1,40.5,2.4,60.7,6.3c16.1,3.1,34.4,5.2,50.4,3.6
					c18.4-1.7,37.4-25.3,17.4-39.3C1427.4,936.7,1408,938.4,1402.5,944.9z"/>
				<g id="XMLID_371_">
					<path id="XMLID_373_" class="st3" d="M1289.4,947.8c11.5-5.4,26.8-5,39.8-3.8c11.6,1.1,22.9,2.4,34.4,5.1
						c14.8,3.5,30.6,8.1,45.6,9.7c12.5,1.3,24.8-3.6,27.5-15.6c-9.5-6.5-28.7-4.8-34.1,1.7c-24.3-2.5-48-1.7-72.4-4.3
						c-16.6-1.8-34.7-6.2-46.4,6.8c-10-3.5-19.4-4.4-28.4-4.1c12.2,2.8,23.9,9.8,35,17C1291,952.9,1279.9,952.3,1289.4,947.8z"/>
				</g>
			</g>
		</g>
		<g id="XMLID_1_">
			<g id="XMLID_2_">
				<path id="XMLID_96_" class="st4" d="M509.1,527.4c-1.3,4.5-10.5,10-13.9,12.5c-14.7,10.8-28,22.8-41.7,34.7
					c-20,17.4-41.8,31.8-62.7,48c1.3-5.1,2.4-10.2,3.6-15.4c1-4,1.8-11.5,4.1-15.1c3.8-6,12.3-9.1,16.8-15.1
					c-4.8,2.2-9.3,4.3-13.7,7.2c2.4-6.4,5.1-12.7,10-17.8c5.3-5.5,13-8.7,19.6-12.6c6.5-3.8,13.3-9.1,20.4-11.8
					c-27.4,9-52.2,23.8-79,34.2c20.5-17.7,45.7-30.1,70-41.4c-9.2,3.5-18.1,7.2-27.1,11.3c-12.5,5.6-26.9,10.5-37.9,18.9
					c1.5-5.5,4-11.9,6.8-16.8c3.4-5.9,7.3-14.4,12.5-18.8c5.6-4.7,15.2-8.3,22.3-9.8c-6.5-0.3-12.6,3.2-19,3.5
					c6.5-3.8,10.4-8.7,17.7-10.9c8-2.4,18.9-5.9,27.2-5.3c-5.6-1.3-11.9-0.1-17.6-0.5c3.7-3.1,10.3-5.2,14.8-7.3
					c7.4-3.6,14.3-6.5,22.5-8c4.4-0.8,7.6-0.3,11.9,0.1c4.9,0.5,9.9,0.4,14.9,0.4c4.4,0,9.3,0.5,13.7-0.1c2.3-0.3,4.4-1.4,6.7-1.2
					c-2.3,7.3-1.2,15.1-2.9,22.7C508.2,517.3,510.2,523.4,509.1,527.4z"/>
				<path id="XMLID_97_" class="st5" d="M474.3,512.7c-30.4,12.1-59.9,26.2-88.3,42.3c31.3-12.8,63.1-26.3,94.4-39.2
					C478.9,514.6,475.7,513.8,474.3,512.7z"/>
				<path id="XMLID_100_" class="st5" d="M447.4,517.6c-5.8,2.1-11.4,5.7-16.9,8.4c-11.3,5.6-22.6,11.2-33.9,16.9
					c21.9-8.6,43.4-18.2,64.4-28.7C456.9,516.3,451.6,516.1,447.4,517.6z"/>
				<path id="XMLID_98_" class="st6" d="M395.2,535.4c21.9-10.2,44.6-18.6,67.8-25.3C438.7,515.1,416.6,522.4,395.2,535.4z"/>
				<path id="XMLID_99_" class="st6" d="M456.9,499.3c11.4-0.7,22.5,1.8,33.6,4.1c-3.9-2.7-7-5.1-11.8-5.7
					C471.3,496.7,464.2,498.8,456.9,499.3z"/>
				<path id="XMLID_101_" class="st6" d="M425.8,512.3c16.2-1.1,32.9-1.2,48.9-3.3c-5.8-5.3-12.6-2.4-19.5-1.7
					C445.5,508.4,435.5,511.7,425.8,512.3z"/>
				<path id="XMLID_102_" class="st7" d="M483.2,528.2c-20.9,15.5-41.7,31.1-62.6,46.6c22.4-14.5,45.4-28.9,67.8-43.4
					C486.5,530.6,485.1,529,483.2,528.2z"/>
			</g>
			<path id="XMLID_5_" class="st8" d="M937.5,321.3c0,0-12.7,36.2-45,37.9c0.2-2.4,5.2-4.3,6.3-6.3c-3.8,1.4-7.3,4.2-11,5.7
				c-0.3-2.8,2-9.8,2.4-12.5c-2.5,2-5.8,10.2-5.8,10.2s-4.3-1.7-5.2-8.4l-4.5,5.1c-7.5-7.7-48.8-26.2-59.5-27.6
				c22.6-12.8,54.8-11.1,79.9-9.8C902.8,315.9,937.5,321.3,937.5,321.3z"/>
			<path id="XMLID_6_" class="st9" d="M856.1,324.8c13.7-0.3,27.4,0.4,41,2c10.8,1.3,22.7,4.8,33.2-0.4c2.4-1.1,3.9-3.4,5.9-4.7
				c-7.7-0.1-15.4-3.1-23.2-4.1c-18.2-2.4-36.1-3.1-54.4-1.9c-14.5,0.9-26.7,3.6-40.3,9c-5.5,2.2-10.5,5.1-15.8,7.7
				C802.3,331.8,838.5,325.1,856.1,324.8z"/>
			<path id="XMLID_4_" class="st7" d="M723.3,414.7c18.4-18.2,17.8-48.9,42.4-62.2c38.8-21,82.9-35.6,127.8-31.7
				c6.9,0.6,40.6,7.9,44,0.5c-3.7-3.2-11.3-3.4-15.9-4.8c-9.9-3.1-19.9-4.3-30.3-5.5c-7.5-0.9-15-1.8-22.5-2.2
				c-12.6-0.6-25.8,3-38.2,5c-41.3,6.7-81.8,18.5-121.1,32.3c-14.2,5-29,9-41.5,17.6c-11.1,7.6-20.4,17.5-30.6,26.2
				c-9,7.6-20.3,10.4-29,18.5c-8.4,7.8-14.6,17.3-21.4,26.5c-5.4,7.1-11.8,15.2-15,23.6c37.6-21.6,75.5-38,118.9-42.7
				c8.1-0.9,16.4-0.9,24.6-1.1C718.7,414.6,722.2,415.8,723.3,414.7z"/>
			<g id="XMLID_23_">
				<path id="XMLID_32_" class="st5" d="M765,347.4c-5.1,1.1-10.2,2.6-15.2,3.9c-5.8,1.5-13.1,1.4-18.5,3.9c1.5,2.1,5.1,1.6,7.8,2.4
					c-17.1,4.6-38,4.6-53.8,12.9c5.4,2,13.6-0.8,19.7-0.6c-6-0.2-31.3,6.2-33.5,10.2c-3.5,1.5-11,3.1-11.9,7.4
					c-1.1,5,3.8,4.1,7.6,3.9c-4.1,1.3-8.9,1.9-11.3,5.6c4.6,0.3,9.4-0.1,14,0.2c-2.8,1.3-9.1,2.3-10.3,4.4c-2.9,0.4-6.8,1.3-8.2,3.9
					c2.9,0.2,6,0,8.8,0.2c-7.1,4.5-20.4,7.1-24.2,15.2c3.1,1.1,7,0.6,10.2-0.6c-1.5,1.3-3.5,3.7-5,6.2c10.6-3.5,21.5-6.3,32.7-8.3
					c3.1-2.8,7.8-5.1,10.2-6c-1.2-0.3-2.9-1.4-4.4-1.6c-1.8-5.8,11.9-9.9,16.2-12.2c-7.7-3.2-19.8-1.6-7.4-10.2
					c-6.5-3.6,4.9-7.1,7.3-8.5c-1.7,0.3-3.3-0.5-4.9-0.8c5.7-6.9,25.1-6.2,33.3-9.9c-2.8-0.8-7,0.1-7.9-2.8
					c13.3-4.9,27.5-7.2,41.8-8.5c2.2-1.9,4.7-3.6,7.4-5.2c7.4-4,14.9-7.7,22.6-11.2c-11.6,0.3-25.4,1.1-34.3,5.3
					C757.6,347.7,761.4,347.1,765,347.4z"/>
				<path id="XMLID_106_" class="st8" d="M724.4,368.9c-8.3,3.7-27.7,3.1-33.3,9.9c1.6,0.3,3.1,1,4.9,0.8c-2.4,1.4-13.9,4.9-7.3,8.5
					c-12.4,8.6-0.3,7,7.4,10.2c-4.3,2.3-18,6.4-16.2,12.2c1.5,0.3,3.2,1.3,4.4,1.6c-2.4,0.9-7.1,3.1-10.2,6c5.5-1,11.1-1.8,16.8-2.4
					c8.1-0.9,16.4-0.9,24.6-1.1c3.5-0.1,6.9,1.1,8,0c16.3-16.2,17.7-42.1,35-57.1c-14.2,1.3-28.5,3.5-41.8,8.5
					C717.3,369,721.6,368.2,724.4,368.9z"/>
			</g>
			<g id="XMLID_104_">
				<path id="XMLID_111_" class="st8" d="M619.1,425.5c-1.8-4.7,14.3-12.8,18-14.9c-1.4-0.3-3.8-0.7-5.6-1.1
					c0.4-3.3,7.8-4.9,10.5-7.1c-12.3-3.9,6.7-12.6,11.5-15.9c-0.5-0.2-1-0.1-1.6-0.2c1.9-6.8,15.6-11.5,21.2-15.6
					c-0.7-0.2-1.7-0.7-2.5-0.9c1.3-5.1,12.7-10.1,17.2-12.1c4.8-2.1,22.3-10.1,42.1-18.6c-6.9,2.3-13.7,4.6-20.6,7
					c-14.2,5-29,9-41.5,17.6c-11.1,7.6-20.4,17.5-30.6,26.2c-9,7.6-20.3,10.4-29,18.5c-8.4,7.8-14.6,17.3-21.4,26.5
					c-5.4,7.1-11.8,15.2-15,23.6c20.5-11.8,41.2-22,62.7-29.6c0.1-0.2,0.2-0.3,0.3-0.4C631.9,428.4,620.5,429.1,619.1,425.5z"/>
			</g>
			<g id="XMLID_21_">
				<path id="XMLID_105_" class="st10" d="M883,317.8c-12.1-0.5-24,1-36,1.5c-4.6,0.2-14.5,1.1-18.8,2.4
					c-14.6,4.3-29.3,6.9-42.8,14.5c-12.6,7.1-25.7,14.1-34.7,25.8c-6.4,8.4-10.4,17.7-14.7,27.2c-4.4,9.6-8.4,18-14.1,26
					c0.7,0,1.2-0.1,1.5-0.4c18.4-18.2,17.8-48.9,42.4-62.2c38.8-21,82.9-35.6,127.8-31.7c6.3,0.5,34.7,6.7,42.3,2.2
					c-1.5-0.3-3-0.6-4.5-0.8C915.4,319.8,899.1,318.5,883,317.8z"/>
			</g>
			<path id="XMLID_108_" class="st11" d="M836.7,444.8c0-5.5,3.4-10.6,3.2-15.6c-0.2-5.3-4-4.7-7.8-7.5
				c-12.6-9.2-30.8-14.5-47.9-12.3c-10.4-1.3-21.2-1.5-31.6-3c-24.1-3.5-46.3-5.9-70.4-1.2c-22.6,4.4-44.1,12.8-64.8,22.8
				c-23.6,11.4-46.1,24.7-69.4,36.5c-21.8,11.1-42.8,24.5-65.8,32.9c-10.6,3.9-20.9,8.1-31.7,11.3c-3.9,1.1-14.4,4-13.5,9.6
				c1.1,6.7,21.4,6.1,26.7,7.9c6.8,2.3,10.5,5.2,14.1,11.1c8.9,14.2,29.5,14.1,44.8,14.4c60.9,1.4,122.5-4.7,180.8-22.7
				c29.1-9,56.3-21.2,82.7-36.7c1.5-0.9,3-1.6,4.5-2.3c5.3,1.3,41.9-5,48.3-12.7C830.6,470.3,830.9,452.9,836.7,444.8z"/>
			<linearGradient id="XMLID_40_" gradientUnits="userSpaceOnUse" x1="834.1432" y1="425.2284" x2="834.1432" y2="448.8644">
				<stop  offset="0" style="stop-color:#BB8C8C"/>
				<stop  offset="1" style="stop-color:#BB8C8C;stop-opacity:0"/>
			</linearGradient>
			<path id="XMLID_63_" class="st12" d="M838.7,425.7c-1.2,1.3-2.7,2.2-4.3,3.2c-1.7,1-4.6,1.6-5.6,3.5c-1.2,2.4,0.6,7.7,0.6,10.6
				c0,3.5,2.1,5.6,4.9,6.6c0.6-1.8,1.4-3.4,2.4-4.7c0-5.5,3.4-10.6,3.2-15.6C839.8,427.6,839.4,426.5,838.7,425.7z"/>
			<g id="XMLID_115_">
				<path id="XMLID_118_" class="st13" d="M793.1,490.3c-0.8-0.1-1.6-0.1-2.4-0.2C791.2,490.3,792.1,490.3,793.1,490.3z"/>
				<path id="XMLID_38_" class="st14" d="M571.3,477.6c6.2-6,18.2-10.2,25.9-14.1c8.4-4.3,17-8.4,25.8-11.9c7.5-3,15.9-5.2,23.8-6.7
					c3.7-0.7,8.4-0.2,11.9-1.4c6.3-2.2,0.9-7.7,0.8-13.1c-0.1-4.3,2.1-8.4,5-11.5c6-6.4,14.5-10.7,22.4-14.4
					c-1.5,0.2-3.1,0.5-4.6,0.8c-22.6,4.4-44.1,12.8-64.8,22.8c-21.8,10.5-42.8,22.7-64.3,33.9c-3.4,3.5-6.6,7.4-9.4,11.1
					c7.1-3.2,14.6-8,21.4-10.6c-14.7,10.9-29.4,22-40.4,37.3c-3,4.2-6.3,8.4-9.2,12.7c35.7-13.5,69.2-30.3,103.9-45.9
					C602.5,468,586,472.4,571.3,477.6z"/>
				<linearGradient id="XMLID_60_" gradientUnits="userSpaceOnUse" x1="624.776" y1="474.6638" x2="651.9106" y2="551.4599">
					<stop  offset="0" style="stop-color:#BB8C8C"/>
					<stop  offset="1" style="stop-color:#BB8C8C;stop-opacity:0"/>
				</linearGradient>
				<path id="XMLID_39_" class="st15" d="M748.3,485.1c3.2,3.9,10.8,10.1,15.8,11.2c-17.6,6.7-32.1,20.8-52.2,14.8
					c-12.8-3.8-24.8,4.7-37.9,6.4c6,2.1,14.2,2.8,20.8,2.7c-7,4.7-18.4,6.2-26.6,8.1c-9.7,2.3-19.8,3.4-29.7,3.2
					c-5.1-0.1-13.5,0.3-17.3-3.8c-2.9-3.1-2.3-7.4,0.1-10.9c14.2-20.4,62.8-45.4,62.8-45.4c-20.4-3.2-40.7-6.4-61.9-5
					c-0.9,0.1-1.8,0.1-2.8,0.2c-34.7,15.6-68.3,32.4-103.9,45.9c-1.1,1.6-2.1,3.2-3.1,4.9c-2.5,4.3-3.8,9.4-6.6,13.5
					c-3.9,5.5-9.5,10.6-14.3,15.3c-0.4,0.4-0.9,0.8-1.4,1.3c9.9,4.2,22.4,4.2,32.6,4.4c60.9,1.4,122.5-4.7,180.8-22.7
					c29.1-9,56.3-21.2,82.7-36.7c1.5-0.9,3-1.6,4.5-2.3C781.2,489.9,756.7,486.8,748.3,485.1z"/>
			</g>
			<linearGradient id="XMLID_239_" gradientUnits="userSpaceOnUse" x1="811.4444" y1="428.5437" x2="778.5718" y2="488.0545">
				<stop  offset="0" style="stop-color:#BB8C8C"/>
				<stop  offset="1" style="stop-color:#BB8C8C;stop-opacity:0"/>
			</linearGradient>
			<path id="XMLID_35_" class="st16" d="M833,454.5c-0.8,0-1.5-0.1-2.3,0c-4.6,0-10.6,1.8-14.2-0.7c-3.3-2.3-6.6-5.2-8.2-8.9
				c-2.1-4.7-2.2-7.6-7.3-10.1c-13-6.3-27.8-4.9-40.4,1.1c-4.6,2.2-7.6,4.8-10.9,8.7c-4.4,5.2-8.4,11.6-11.3,17.7
				c-0.7,1.4-1.3,2.8-1.8,4.3c-0.2,4.6-0.2,9.2,0.1,13.8c0.3-1.7,0.7-3.4,1.1-5.1c3.2-12.3,13.8-35,29.6-33.5
				c-4.9,6.4-10.9,10.5-11.8,18.9c-0.7,7.6,1,13.3,7.5,17.9c4.2,2.9,8.8,5.1,13.5,6.8c4,1.4,19.1,5.4,38.3,1.2
				c9.9-4.4,17.6-1.3,24.1-8.9C833.2,472.5,831.6,462.7,833,454.5z"/>
			<path id="XMLID_56_" class="st17" d="M805.3,438.2c-5.1-8.5-17.1-11-29.8-9.5c-8,1-15,5.7-20.7,11.1c5.5-4.4,12.8-5.7,19.6-5.3
				c0.3,5.5,0,11,4.8,15.1c8.6,7.3,13.5-5.5,14.8-12.4C795.9,437.2,804.1,437.5,805.3,438.2z"/>
			<path id="XMLID_58_" class="st18" d="M804.4,466.4c0.2,3.1,2.3,6.2,3.9,8.8c0.9,1.4,2.5,2.5,3.2,3.8c0.9,1.7,0.3,4.2,1.3,5.8
				c3.1,4.6,13.2,0.6,17.6,0.3c10.1-0.5,20.5,3.8,29.7,7.4c6.8,2.7,13.2,4.8,19,9.5c1.8,1.4,3.6,3,5.5,4.2c0.9-7-3.9-15.7-8.8-20.3
				c-7.7-7.2-20-9.2-29.7-13.1c-10.7-4.3-19.8-11.6-31.9-10.8C810,462.4,807.4,465.1,804.4,466.4z"/>
			<path id="XMLID_57_" class="st19" d="M884.4,511.7c-1.6-10.9-9-19.9-20.4-23.8c-12.3-4.3-24.5-5.1-34.9-13.7
				c-6.7-5.6-15.7-13.6-24.7-7.8c-2.9-7.1,6.3-7.4,8.1-11.8c1.4-3.5-3-5.9-1.5-9.6c1.7-4.3,8.3-9,12.1-11.3
				c8.8-5.3,12.4,2.6,14.8,10c3.3,10.3,10.1,22.4,20.8,24.6c8.6,1.8,15.5,0.6,22.6,7.2c5.8,5.4,8.4,13,8.8,20.8
				C890.4,501,889.9,510,884.4,511.7z"/>
			<path id="XMLID_212_" class="st20" d="M890.1,496.3c-0.4-7.8-3-15.4-8.8-20.8c-4.2-3.9-8.4-5.1-12.8-5.8
				c-4.2,4.5-6.5,11.1-5.3,17.8c0,0,0,0.1,0,0.1c0.2,0.1,0.5,0.1,0.7,0.2c11.4,4,18.8,12.9,20.4,23.8
				C889.9,510,890.4,501,890.1,496.3z"/>
			<path id="XMLID_59_" class="st13" d="M884.4,511.7c0,0-0.1-0.4-0.3-1.1c-0.1-0.7-0.5-1.7-0.9-3c-0.5-1.3-1-2.8-2-4.4
				c-0.9-1.6-2-3.4-3.5-5.1c-1.5-1.7-3.3-3.4-5.4-4.9c-2.1-1.5-4.5-2.8-7.1-3.8c-0.7-0.2-1.3-0.5-2-0.7c-0.7-0.2-1.4-0.4-2.1-0.7
				c-1.4-0.4-2.8-0.8-4.3-1.2c-2.9-0.8-5.9-1.5-8.9-2.4c-3-0.9-6-1.8-8.8-3.1c-2.9-1.2-5.6-2.7-8-4.5c-2.4-1.8-4.4-3.7-6.5-5.4
				c-2-1.7-4-3.2-5.9-4.3c-1.9-1.1-3.9-2-5.7-2.3c-1.8-0.3-3.4-0.4-4.7-0.1c-1.3,0.3-2.3,0.6-2.9,1c-0.7,0.3-1,0.5-1,0.5
				s0.3-0.2,0.9-0.6c0.3-0.2,0.7-0.5,1.2-0.6c0.5-0.2,1-0.5,1.7-0.6c1.3-0.4,3-0.6,5-0.4c1.9,0.2,4,0.9,6.2,2
				c2.1,1.1,4.3,2.5,6.4,4.1c2.1,1.6,4.3,3.5,6.6,5c2.3,1.6,4.9,2.9,7.7,4.1c2.7,1.1,5.6,2.1,8.6,2.9c2.9,0.9,5.9,1.6,8.9,2.4
				c1.5,0.4,2.9,0.9,4.4,1.3c0.7,0.2,1.4,0.5,2.1,0.7c0.7,0.2,1.4,0.5,2.1,0.8c2.8,1.1,5.2,2.6,7.4,4.3c2.2,1.7,3.9,3.5,5.4,5.4
				c0.7,0.9,1.3,1.9,1.9,2.8c0.5,1,1,1.8,1.4,2.7c0.8,1.7,1.3,3.3,1.6,4.7c0.3,1.3,0.5,2.4,0.6,3.1
				C884.3,511.3,884.4,511.7,884.4,511.7z"/>
			<g id="XMLID_203_">
				<path id="XMLID_205_" class="st21" d="M820.6,475.3c-3.4-2.1-5.5-6.5-9.6-7.7c-1.3-0.4-3.9,0.1-6.3,0.3c0.6,2.6,2.3,5.1,3.7,7.3
					c0.9,1.4,2.5,2.5,3.2,3.8c0.9,1.7,0.3,4.2,1.3,5.8c3.1,4.6,13.2,0.6,17.6,0.3c10.1-0.5,20.5,3.8,29.7,7.4
					c2.2,0.8,4.3,1.7,6.4,2.5c-8.5-4.5-17.8-7.3-26.7-11.2C833.5,481.1,826.5,478.8,820.6,475.3z"/>
			</g>
			<path id="XMLID_62_" class="st17" d="M826.8,454c-1.9-0.6-5.8,1.1-5.8,3.5c2.3,0.2,4.6-0.7,6.8,0c1,0.4,3.9,2.3,3.9,2.3
				C830.6,458.1,828.9,454.6,826.8,454z"/>
			<path id="XMLID_207_" class="st22" d="M864.7,471.2c-1.9-0.2-3.8-0.3-5.6-0.5c-1.7-0.2-3.4-0.7-5-1.3c-3.2-1.3-5.9-3.1-8.1-4.8
				c-2.2-1.7-3.9-3.4-5.1-4.5c-0.6-0.6-1-1.1-1.3-1.4c-0.3-0.3-0.5-0.5-0.5-0.5s0.1,0.2,0.4,0.6c0.2,0.4,0.6,0.9,1.1,1.6
				c0.5,0.7,1.1,1.5,1.9,2.4c0.8,0.9,1.7,1.9,2.7,2.9c2.1,2,4.8,4.1,8.2,5.7c1.7,0.8,3.5,1.4,5.5,1.7c1.9,0.2,3.8,0.4,5.6,0.6
				c0.4,0,0.8,0.1,1.1,0.1l1.5-2.1C866.3,471.4,865.5,471.3,864.7,471.2z"/>
			<path id="XMLID_210_" class="st22" d="M884.4,489c-0.2-0.8-0.6-1.8-1-2.9c-0.4-1.1-0.9-2.3-1.5-3.6c-0.3-0.6-0.7-1.3-1.1-2
				c-0.4-0.7-0.9-1.3-1.4-2c-0.5-0.7-1.1-1.3-1.7-2c-0.7-0.6-1.3-1.3-2.1-1.8c-1.1-0.8-2.5-1.5-3.8-2l-1.1,2c0.5,0.2,1,0.3,1.5,0.5
				c0.8,0.4,1.5,0.7,2.2,1.2c0.7,0.4,1.3,1,2,1.5c0.6,0.6,1.2,1.1,1.7,1.7c0.5,0.6,1,1.2,1.4,1.8c0.4,0.6,0.8,1.2,1.2,1.8
				c0.7,1.2,1.4,2.3,1.9,3.4c0.5,1,1,1.9,1.3,2.7c0.7,1.5,1.1,2.4,1.1,2.4S884.9,490.6,884.4,489z"/>
			<g id="XMLID_19_">
				<path id="XMLID_95_" class="st23" d="M793.1,490.3c-0.8-0.1-1.6-0.1-2.4-0.2C791.2,490.3,792.1,490.3,793.1,490.3z"/>
				<path id="XMLID_36_" class="st23" d="M769.2,501.3c-5.7,2.8-11.5,5.6-17.3,8.1c-11.7,5.2-23.5,9.8-35.6,13.8c-3,1-6,2-9.1,2.9
					l-4.6,1.4l-4.6,1.3c-6.1,1.8-12.3,3.4-18.5,4.9l-9.3,2.2l-9.3,2c-3.1,0.7-6.2,1.2-9.4,1.8c-1.6,0.3-3.1,0.6-4.7,0.9l-4.7,0.8
					c-3.1,0.5-6.3,1.1-9.4,1.6c-3.1,0.5-6.3,1-9.4,1.4l-9.5,1.2l-9.5,1.1c-3.2,0.4-6.3,0.6-9.5,1c-3.2,0.3-6.3,0.6-9.5,0.8
					c-3.2,0.3-6.4,0.5-9.5,0.7c-3.2,0.2-6.4,0.5-9.5,0.6l-9.6,0.4l-9.6,0.3c-6.4,0.2-12.7,0.3-19.1,0.3c-6.4,0-12.8,0.1-19.1-0.2
					c-3.2-0.1-6.3-0.4-9.5-0.9c-3.1-0.5-6.2-1.2-9.1-2.4l1.3-1.3l-1.5,1.3l-0.1,0.1l0.1,0c5.8,2.7,12.3,3.8,18.7,4.5
					c3.2,0.3,6.4,0.5,9.6,0.6c3.2,0.2,6.4,0.3,9.6,0.4c6.4,0.2,12.8,0.3,19.2,0.4l9.6,0l9.6-0.2c6.4-0.2,12.8-0.4,19.2-0.9
					c3.2-0.2,6.4-0.4,9.6-0.7c3.2-0.3,6.4-0.5,9.6-0.8l9.6-1l9.5-1.2c3.2-0.4,6.4-0.9,9.5-1.4c3.2-0.4,6.3-1,9.5-1.5l4.7-0.8
					c1.6-0.3,3.2-0.6,4.7-0.9c3.1-0.6,6.3-1.2,9.4-1.9l9.4-2.1l9.3-2.3c6.2-1.7,12.4-3.3,18.5-5.2c6.2-1.8,12.2-3.9,18.3-6.1
					c6-2.2,12-4.5,17.9-7.1c5.9-2.5,11.7-5.2,17.5-8c5.7-2.8,11.4-5.8,17-9c5.6-3.1,11.1-6.4,16.5-9.8
					C780.6,495.5,774.9,498.5,769.2,501.3z"/>
			</g>
			<g id="XMLID_9_">
				<path id="XMLID_10_" class="st4" d="M419,785.5c-39.9,40.1-83.9,76.1-131.1,107.2c-9.9,6.5-20.1,12.9-31.3,16.7
					c-2.2,0.7-5.1,1.1-6.3-0.9c4.3-5.7,8.6-11.5,12.3-17.6c4.9-8.2,10.1-18,19.5-19.7c-2.9,0.5-5.8,1.1-8.7,1.6
					c-1,0.2-2.1,0.4-3-0.1c-2.3-1.3-0.8-4.8,1-6.7c7-7.7,14.4-15,22.2-21.9c-1.5,0.6-5.1-1.6-5-3.3s1.2-3,2.3-4.3
					c8.5-9.4,17.8-18.1,27.9-25.8c-1.9-0.2-3.8-0.5-5.7-0.7c7.8-11.5,17.7-21.5,29-29.6c-1.8-0.1-3.7-0.2-5.5-0.2
					c0.1-2.6,1.9-4.7,3.7-6.5c10.3-10.4,21.8-19.7,34.1-27.6c-1.5-0.7-3.1-1-4.8-0.7c0.2-3,2.6-5.2,4.9-7.1
					c6.4-5.2,13.3-9.7,20.6-13.6c-1.9,0.1-3.8,0.2-5.7,0.3c-0.7-1.5,0.6-3.1,1.8-4.2c12.3-11.5,26.5-20.9,41.8-27.9
					c1.3,8.4,1.9,17.4,1.1,25.8c-1,9.6-3.3,18.9-5.6,28.2C425.3,759.2,422.1,773.2,419,785.5z"/>
				<g id="XMLID_93_">
					<g id="XMLID_287_">
						<g id="XMLID_288_">
							<path id="XMLID_289_" class="st7" d="M432.8,692.9c-3.6,1.6-7,3.4-10.5,5.2c-1.4,5.1-2.4,10.1-3.3,15.4
								c-9.8,6.8-19.2,14.1-28.3,21.8c4.4-1.3,8.9-2.5,13.3-3.8c-8.9,4.6-17,10.6-24.1,17.7c4.6,0.1,8.8-2.5,12.7-5
								c-11.7,9.7-23.5,19.5-35.2,29.2c8.5-0.6,16.4-4.6,23.9-8.6c-10.5,6.6-20.6,13.8-30.1,21.7c-2.6,2.1-5.3,4.5-6.3,7.7
								c8.9-1.8,16.8-6.7,24.6-11.6c-7.2,4.9-13.9,10.7-19.8,17.1c8.7-1.4,16.4-6.3,23.2-11.9c6.8-5.6,13.5-11.3,20.9-16.2
								c-30.3,27.7-62.6,53.2-96.5,76.4c4.9-1.2,9.5-3.6,13.9-6.2c27.4-15.7,53.3-36.7,75.9-58.7c2,0.4,4.7,1.3,6.8,0.9
								c-4.2,3.6-8.5,7.2-12.7,10.7c-31.2,26.4-62.4,53-96.7,75.3c37.4-22.9,72.8-49.1,105.7-78.1c1.9,0.4,3.8,1.4,4.9,3
								c-31.4,33.7-112.5,86.4-112.5,86.4c-5.9,6.5-8.9,9.9-14.8,16.5c45.1-23.7,86.8-60.5,125.4-93.8
								C354.9,842,310,878,263.8,906.6c8.5-3.8,16.4-8.8,24.2-13.9c47.2-31.1,91.2-67.1,131.1-107.2c3-12.3,6.3-26.2,9.3-38.5
								c2.3-9.3,4.6-18.7,5.6-28.2C434.8,710.3,434.1,701.3,432.8,692.9z"/>
						</g>
					</g>
				</g>
				<path id="XMLID_7_" class="st7" d="M684.1,471.3c-8.2-11.3-21.8-18.6-35.8-19c-5.9-0.2-11.8,0.7-17.6,2.1
					c-5.5,1.3-10.9,2.9-16.2,4.6c-23.5,7.6-46.5,16.8-68.7,27.6c20-4,40-8,60-11.9c-27.1,9.1-54.6,17.1-82.4,23.9
					c-15.4,3.8-32,7.7-42.5,19.6c5.3-1.4,10.1-2.4,15.6-2.6c-8,3.1-16.1,5.9-24.4,8.1c-22.6,24.4-33,58.5-34.7,91.7
					c-0.4,7.3-0.4,14.9-3.4,21.7c-0.5,1.2-1.1,2.4-1,3.6c0.4,3.5,5.3,3.8,8.8,3.2c-3.1,0.5-6.4,1.2-8.3,3.6c-2,2.4-1.3,7,1.8,7.4
					c-2.2,1.5-4.5,3-6.7,4.6c0.1,9.1-2.2,18.6-7.2,26.3c-5.2,8.1-13.9,13.5-18.5,22c-0.5,1-1,2-0.9,3.1c0.2,1.9,2.1,3.2,4,3.4
					c1.9,0.2,3.7-0.5,5.5-1.2c-1.9,1.9-6.6,7.5-6.9,10.2c-0.5,4.8,3.2,4.1,6.8,4.4c-2.9,3.6-22.5,16.8-6.3,15.6
					c-5.7,2.9-12.6,7.4-16.8,12.3c-4.1,4.8-2,8,4,6c-4.4,4.4-9.9,5.7-13.4,11.3c-0.8,1.3-3.8,5.9-3.2,7.5c0.9,2.4,3.7,1.6,6,1.6
					c-8.2,2.6-11.9,22.3,2,15.3c-1.9,2.9-8.3,9.1-4.7,13c4.4,4.7,18.9-6.6,22.5-9.1c50.5-35.1,86.3-86.4,128.4-130.4
					c7.4-7.8,18-15.4,21.5-26c9.1-28,5.3-59,13.7-87.3c4.2-14.3,10.2-28.4,19.7-39.9c15.9-19.1,39.9-29.2,63.2-37.8
					C662.1,480.6,672.9,476.9,684.1,471.3z"/>
				<g id="XMLID_30_">
					<path id="XMLID_181_" class="st24" d="M441.5,643.9C441.5,643.9,441.5,643.9,441.5,643.9c0.1,0,0.2,0,0.3-0.1
						C441.7,643.8,441.6,643.9,441.5,643.9z"/>
					<path id="XMLID_186_" class="st7" d="M433,640.7c0.4,3.4,5,3.8,8.4,3.2c-2.3-1.1-5.5-3-8.2-5.2C433.1,639.3,433,640,433,640.7z
						"/>
					<path id="XMLID_190_" class="st8" d="M452.4,750.3c-4-1.7-3.8-6.7-0.4-10c-11.1,1.4-1.6-7.2-0.4-11.3c-5,0.5-3.4-4.8-3-7.7
						c-4.7-0.4-3.4-6.8-0.4-8.6c-5.9-4.3-0.1-13.3,5.1-15.6c-8-2.3,8.5-11.3,10.5-12c-3.6,0.1-10.8,0.8-11.8-3.6
						c-1-4.3,4.7-9.6,7.6-11.8c-2.7-2.5-7.1-1.3-6.8-6c0.5-6.6,7.6-10.8,11.9-14.2c-6.3-3.4-15.2-2-22.1-5c-0.4-0.2-0.8-0.4-1.3-0.6
						c-3,0.5-6.1,1.3-8,3.6c-2,2.4-1.3,7,1.8,7.4c-2.2,1.5-4.5,3-6.7,4.6c0.1,9.1-2.2,18.6-7.2,26.3c-5.2,8.1-13.9,13.5-18.5,22
						c-0.5,1-1,2-0.9,3.1c0.2,1.9,2.1,3.2,4,3.4c1.9,0.2,3.7-0.5,5.5-1.2c-1.9,1.9-6.6,7.5-6.9,10.2c-0.5,4.8,3.2,4.1,6.8,4.4
						c-2.9,3.6-22.5,16.8-6.3,15.6c-5.7,2.9-12.6,7.4-16.8,12.3c-4.1,4.8-2,8,4,6c-4.4,4.4-9.9,5.7-13.4,11.3
						c-0.8,1.3-3.8,5.9-3.2,7.5c0.9,2.4,3.7,1.6,6,1.6c-8.2,2.6-11.9,22.3,2,15.3c-1.9,2.9-8.3,9.1-4.7,13
						c4.4,4.7,18.9-6.6,22.5-9.1c20.9-14.5,39.3-31.8,56.6-50.2C455.9,751,453.9,750.9,452.4,750.3z"/>
				</g>
				<g id="XMLID_20_">
					<path id="XMLID_129_" class="st7" d="M639.7,462.5c0.2,0.1,0.3,0.1,0.5,0.2C640,462.7,639.9,462.6,639.7,462.5z"/>
					<path id="XMLID_179_" class="st6" d="M481.5,625c1.9,5.9,8.8,10.6,14.3,7.9c3.6-1.7,6.1-6.1,10-5.9c-1.6,3.3-1.8,7.3-0.4,10.7
						c-2.7,2.4-4.6,5.7-5.2,9.2c3,0.6,6,0.6,9,0.2c-9.1,6.6-14.5,18-13.7,29.2c2.4-8.7,6.8-16.8,12.6-23.7
						c-0.1,4.3,0.4,8.7,1.5,12.9c-0.9-4.6,0.3-9.6,3.2-13.3c0,2.8,0.9,5.6,2.6,7.9c-1.4-5.1,0-10.8,3.6-14.6
						c0.7,3.4,3.5,6.3,6.9,7.2c-1.8-4-2.3-8.5-1.4-12.8c-2.5,1.5-6.1,0.2-7.1-2.5c-1-2.7,0.9-6,3.7-6.6c-2.2-6.1,0.9-13.5,6.7-16.3
						c-3.5-0.3-3.9-6.6-0.4-7.3c-4.5,1-7.2-4.8-7.7-9.4c-0.7-5.4,0-12.1,4.9-14.2c-2.2-8,3.4-17.3,11.5-19c-3.5-0.3-5.5-4.6-4.8-8.1
						c0.7-3.4,3.3-6.2,5.8-8.7c-3.3-3.7-3.8-9.6-1.3-13.9c2.5-4.3,7.9-6.7,12.7-5.7c-1.5-2.3-0.6-5.5,1.2-7.5c1.8-2,4.4-3.2,6.9-4.3
						c-2.9-0.5-5.8-1-8.8-1.5c4.5-7,11.1-12.6,18.6-16.1c3.7-5.5,14.4-8.1,14.5-9.5c0.1-1.4,1.5-2.2,2.8-2.7c10-4,20.4-6.9,31-8.6
						c-1.3-0.3-2.5-1-3.3-2.1c2.3-1.8,5.1-3.1,8-3.8c-3.9-1-7.8-2.1-11.7-3.1c8.4-7.8,21.2-10.4,31.9-6.4c-1.6-0.8-1.6-3.7-0.1-4.9
						c1.6-1.4,8.2-3.8,12.2-2.7c-3.6-1.2-7.3-2-11.1-2.4c-3.4,0.4-6.7,1-10,1.8c-5.5,1.3-10.9,2.9-16.2,4.6
						c-23.5,7.6-46.5,16.8-68.7,27.6c20-4,40-8,60-11.9c-27.1,9.1-54.6,17.1-82.4,23.9c-15.4,3.8-32,7.7-42.5,19.6
						c5.3-1.4,10.1-2.4,15.6-2.6c-8,3.1-16.1,5.9-24.4,8.1c-22.6,24.4-33,58.5-34.7,91.7c-0.2,2.9-0.3,5.8-0.5,8.7
						c14.4-8.3,29.6-14.7,46-17.2C481.3,612.8,479.6,619.1,481.5,625z"/>
					<g id="XMLID_33_">
						<path id="XMLID_176_" class="st5" d="M420,723.8c0.3-0.1,0.6-0.3,1-0.5C420.6,723.4,420.3,723.6,420,723.8z"/>
						<path id="XMLID_182_" class="st5" d="M503.2,602.6c-0.4,0.3-0.8,0.6-1.2,0.9C502.5,603.4,502.9,603.1,503.2,602.6z"/>
						<path id="XMLID_184_" class="st5" d="M414.4,751.2c1.1-0.5,2.2-1,3.2-1.5C416.5,750.2,415.5,750.7,414.4,751.2z"/>
						<path id="XMLID_188_" class="st5" d="M430,707.9c1-0.2,2-0.6,3-1.1C432,707.1,431,707.4,430,707.9z"/>
						<path id="XMLID_191_" class="st5" d="M423.9,728.6c0.7-0.3,1.5-0.7,2.2-1.1C425.3,727.9,424.6,728.3,423.9,728.6z"/>
						<path id="XMLID_193_" class="st5" d="M477.9,673.2c-0.8,0.6-1.8,1.1-2.7,1.6c0.2,0.3,0.4,0.5,0.6,0.8
							C476.6,674.8,477.3,674,477.9,673.2z"/>
						<path id="XMLID_194_" class="st5" d="M401.8,796.6c1.2-3,3.6-5.4,5.9-7.8c-2.1,2.3-5.8,2.8-8.5,1.2c3-3.8,6-7.6,9-11.4
							c-7.3,4.5-14.9,8.5-22.8,11.8c-1.4,0.6-3.4,0.8-3.9-0.5c-0.2-0.5-0.1-1,0.1-1.4c0.8-2.9,2.9-5.3,5.1-7.5
							c7-7.2,14.8-13.8,23.1-19.5c-8.7,5-17.5,9.8-26.4,14.4c0.6-4.3,4.1-7.5,7.6-10.1c7.3-5.6,15.2-10.5,23.5-14.5
							c-6.9,3.1-14.1,5.5-21.6,6.9c-0.6-2.5,1.9-4.5,4-5.8c8-4.9,15.9-9.9,23.9-14.8c-3.7,1.9-7.7,3.9-11.8,3.1
							c4.2-4.8,9.3-8.9,14.9-12c-3.4,1.6-7.1,2.5-10.9,2.7c1.4-3.2,3.9-5.9,7-7.6c-2.2,1-4.7,1.4-7.1,1c3.6-6.2,10.3-13.7,17.2-16.8
							c-1.7,0.4-3.5,0.3-5.2-0.2c-0.7-0.2-1.5-0.6-1.7-1.3c-0.1-0.6,0.2-1.1,0.5-1.6c1.1-1.7,2.6-3.3,4.2-4.5
							c-3,0.4-6.1,0.3-9.1-0.3c3-9.1,13.5-13,22.7-15.7c-2,0.5-4.1-0.1-5.6-1.4c1.8-0.8,3.2-2.3,4.2-4c-1.8,1.8-5.2,0-5.8-2.5
							c-0.5-2.5,0.8-5,2.3-7.1c1.7-2.4,3.6-4.7,5.8-6.8c-1.6,2.3-1,5.7,1.1,7.5c1.7,1.4,4.3,1.5,6.2,0.4c0.4-0.4,0.8-0.7,1.3-1
							c-0.4,0.4-0.8,0.7-1.3,1c-3.4,2.9-5.1,7.9-3.1,11.9c2.3,4.4,9.6,5.4,12.2,1.2c-1.7,1-3.9-0.8-4-2.8c0-1.9,1.4-3.6,2.9-4.8
							c-1,1-0.6,2.9,0.5,3.8c1.1,0.9,2.6,1.1,4.1,1.1c5,0,9.9-2,13.5-5.4c-0.2-0.2-0.4-0.5-0.6-0.8c-3.7,1.7-8,2.2-12,1.2
							c1.5-4.1,4.1-7.8,7.4-10.5c-1,1.3,0.4,3.3,2,3.6c1.1,0.2,2.2-0.1,3.2-0.6c0.4-0.3,0.9-0.6,1.4-0.7c-0.5,0.3-0.9,0.5-1.4,0.7
							c-1.6,1.4-1.8,4.4-0.6,6.4c0.9-0.4,1.9-1,2.7-1.6c-0.6,0.8-1.3,1.6-2.1,2.3c0.1,0.1,0.2,0.2,0.3,0.3c2.6,2.2,6.6,1.9,9.8,0.6
							c0,1.4-0.1,2.7-0.1,4.1c7.9-1,15.2-5.8,19.2-12.6c-4.7,3.6-10.1,6.4-15.8,8.2c-0.1-2.1,0.6-4.3,2-6c-3.5,2.8-8.2,4-12.7,3.3
							c4-6.8,9.5-12.8,16-17.4c-4.8,2.5-10,4.3-15.3,5.3c0.6-3.9,2.5-7.6,5.2-10.4c-3.3,2.1-7.3,3.1-11.1,2.6
							c7.7-11.2,17.7-20.7,29.2-27.8c-2.9,0.8-5.5-2.7-5.1-5.6c0.4-3,2.6-5.3,4.7-7.5c-1.5-0.1-2.9-0.6-4.1-1.5
							c0.4-2.8,1.9-5.7,4-7.6c-1.4,0.4-3.3-0.3-3.9-1.8c-0.9-1.9-0.1-4.2,1.1-6c1.1-1.8,2.6-3.4,3.3-5.4c-1.6,1-3.4,2.1-5.3,2.2
							c-1.9,0.1-4.1-0.9-4.5-2.8c-0.2-0.9,0.1-1.9,0.3-2.9c1.5-4.6,3.9-9,7-12.7c-1.9,0.5-2.7-2.5-1.7-4.1c1-1.6,2.9-2.8,3.4-4.7
							c-1.8,0.8-3.7-1.4-3.4-3.4c0.3-1.9,1.8-3.4,3.3-4.7c1.5-1.3,3.1-2.7,3.4-4.6c-1.6,2.3-5.7,0.1-5.8-2.7
							c-0.1-2.8,2.1-5.1,4.3-6.9c2.7-2.2,5.5-4.1,8.5-5.8c-1-1-0.5-2.8,0.1-4.1c1.6-3.5,3.2-6.9,4.8-10.4c-0.8-0.5-1.6-1-2.4-1.6
							c1.5-3.3,3.8-6.3,6.5-8.6c-2.1-0.1-3.6-2.1-3.8-4.2c-0.2-2.1,0.6-4.1,1.6-5.9c0.6-1.2,1.4-2.4,2.1-3.6
							c-14.7,3.6-30.1,7.8-40.1,19c5.3-1.4,10.1-2.4,15.6-2.6c-8,3.1-16.1,5.9-24.4,8.1c-22.6,24.4-33,58.5-34.7,91.7
							c-0.4,7.3-0.4,14.9-3.4,21.7c-0.5,1.2-1.1,2.4-1,3.6c0.4,3.5,5.3,3.8,8.8,3.2c-3.1,0.5-6.4,1.2-8.3,3.6c-2,2.4-1.3,7,1.8,7.4
							c-2.2,1.5-4.5,3-6.7,4.6c0.1,9.1-2.2,18.6-7.2,26.3c-5.2,8.1-13.9,13.5-18.5,22c-0.5,1-1,2-0.9,3.1c0.2,1.9,2.1,3.2,4,3.4
							c1.9,0.2,3.7-0.5,5.5-1.2c-1.9,1.9-6.6,7.5-6.9,10.2c-0.5,4.8,3.2,4.1,6.8,4.4c-2.9,3.6-22.5,16.8-6.3,15.6
							c-5.7,2.9-12.6,7.4-16.8,12.3c-4.1,4.8-2,8,4,6c-4.4,4.4-9.9,5.7-13.4,11.3c-0.8,1.3-3.8,5.9-3.2,7.5c0.9,2.4,3.7,1.6,6,1.6
							c-8.2,2.6-11.9,22.3,2,15.3c-1.9,2.9-8.3,9.1-4.7,13c4.3,4.6,18.2-6.1,22.2-8.9C400.9,799.7,401.2,798.1,401.8,796.6z"/>
						<path id="XMLID_197_" class="st5" d="M475.8,668.4c0.5-0.2,1-0.5,1.4-0.7C476.7,667.8,476.2,668,475.8,668.4z"/>
						<path id="XMLID_198_" class="st5" d="M449.6,670.4c0.5-0.3,0.9-0.6,1.3-1C450.4,669.7,450,670.1,449.6,670.4z"/>
						<path id="XMLID_199_" class="st7" d="M475.8,668.4c-1,0.5-2.1,0.8-3.2,0.6c-1.6-0.3-2.9-2.3-2-3.6c-3.4,2.7-6,6.4-7.4,10.5
							c4,1,8.3,0.6,12-1.2C474,672.7,474.2,669.8,475.8,668.4z"/>
					</g>
				</g>
				<g id="XMLID_103_">
					<g id="XMLID_322_">
						<g id="XMLID_325_">
							<path id="XMLID_327_" class="st8" d="M569.6,528.9c0.3,0.4,0.6,0.8,0.9,1.3C570.3,529.7,570,529.3,569.6,528.9z"/>
						</g>
						<g id="XMLID_323_">
							<path id="XMLID_324_" class="st8" d="M650.2,470.8c2,1.7,4.2,3.2,6.5,4.6c-8.3,1.3-16.8,0.8-24.9-1.5
								c2.1,1.2,4.2,2.4,6.4,3.6c-25.5,7.6-48.3,22.4-66.5,41.7c1.1,2.2,2.3,4.3,3.4,6.5c-2.6-0.9-5.3-1.1-8-0.6
								c0.9,1.3,1.7,2.5,2.6,3.8c0.4,0.3,0.7,0.7,0.9,1.3c-0.3-0.4-0.6-0.8-0.9-1.3c-0.9-0.7-2.3-0.9-3.4-0.6
								c-1.6,0.6-2.8,2-3.8,3.4c-1.7,2.6-3.1,5.4-4.1,8.3c2.7,1.2,5.1,3.2,6.7,5.7c-3.2-1.5-6.9-2.2-10.4-1.8c2.9,1.7,5.3,4.2,7.1,7
								c-3.4-0.7-6.8-1.3-10.2-2c-4.1,14.3-6.1,29.3-5.9,44.2c2,0,4,0.7,5.6,2c-2.4,0.2-4.7,1-6.7,2.3c2.7-0.7,5.8,0.8,7.1,3.3
								c-2.4,0-4.8,0.1-7.1,0.1c-0.1,3.1,0,6.2,0.4,9.3c2.1-0.4,4.4,0.1,6.2,1.2c-1.9,0.6-3.8,1.3-5.6,1.9
								c0.6,10.1,0.3,20.7-2.4,30.5c1.5,1.5,2.5,3.4,3,5.5c-1.3-0.7-2.6-1.4-3.9-2.2c-9.2,9.5-18.4,19-27.6,28.5
								c1.1,0.6,2.1,1.5,2.7,2.6c-3.7,1.6-7.4,3.3-11.1,4.9c-2.4,1.1-5.3,3-4.6,5.5c0.5,1.9,2.8,3.5,1.9,5.1
								c-1.4-0.1-2.8-0.2-4.2-0.3c0.8,1.3,1.6,2.6,2.4,3.8c-1.5-2.3-5-0.6-7,1.2c-5.5,5.2-10.5,10.9-14.9,17.1
								c1.5,0.6,2.8,1.6,3.8,2.9c-4.2-0.3-8,2.6-10.4,6c-2.4,3.4-3.6,7.5-5.4,11.3c-2.2,4.9-5.2,9.4-8.6,13.6
								c24.1-25.7,46.2-53.5,70.5-78.8c7.4-7.8,18-15.4,21.5-26c9.1-28,5.3-59,13.7-87.3c4.2-14.3,10.2-28.4,19.7-39.9
								c15.9-19.1,39.9-29.2,63.2-37.8c14.4,0.8,25.1-2.8,36.4-8.5c-0.5-0.7-1-1.4-1.6-2.1C671.8,470.7,661,471.2,650.2,470.8z"/>
						</g>
					</g>
				</g>
				<g id="XMLID_16_">
					<g id="XMLID_357_">
						<g id="XMLID_366_">
							<path id="XMLID_367_" class="st6" d="M373.5,746.6c-12,7.8-23.2,16.9-33.3,27.1c-1.8,1.8-3.7,3.9-3.7,6.5
								c0,0,28.7-27.6,46.3-37.1L373.5,746.6z"/>
						</g>
						<g id="XMLID_363_">
							<path id="XMLID_364_" class="st6" d="M353.5,774.3c0,0-7.1,2.9-11.5,6.1c-11.3,8-21.2,18.1-29,29.6
								C313,810,332.6,789.2,353.5,774.3z"/>
						</g>
						<g id="XMLID_360_">
							<path id="XMLID_361_" class="st6" d="M318.8,810.7c-10.1,7.7-19.4,16.4-27.9,25.8c-1.1,1.2-2.3,2.6-2.3,4.3
								c0,0.5,0.3,1,0.7,1.5c20.8-19.3,47.1-42.9,47.1-42.9C329.4,802.4,318.8,810.7,318.8,810.7z"/>
						</g>
					</g>
				</g>
				<path id="XMLID_28_" class="st7" d="M341,804.2c-16.2,9.2-30.6,21.7-42,36.4c16-12.4,31.9-24.3,48.3-36.2
					C345.3,804.6,342.8,803.2,341,804.2z"/>
				<g id="XMLID_31_">
					<g id="XMLID_630_">
						<path id="XMLID_673_" class="st8" d="M466.8,715.3c-1.6,1-3.1,1.4-4.3,3c-0.9,1.2-1.9,2.4-2.3,3.8c-0.1,0.5-0.2,0.9-0.2,1.3
							c-1.2,0.8-2.5,1.4-3.6,2.4c-1.8,1.5-3.6,3.1-4.9,5.1c-1.3,2-2,4.7,1,5.6c0.2,0.1,0.3-0.1,0.4-0.2c0.2-0.9-0.1-0.7-0.4-1.4
							c-0.5-1.1-0.6-1.7-0.1-3c0.4-0.9,1.2-1.8,1.9-2.5c1.3-1.5,2.8-2.9,4.3-4.2c0.5-0.4,1-0.7,1.5-1c0.4,1.6,2.2,2.4,4.2,2
							c1.9-0.3,2.3-2.5,0-2.8c-0.5-0.1-1.4,0.2-1.7-0.2c-0.4-0.6,0.5-1.7,0.8-2.2c1.2-1.8,2.2-3.5,3.9-4.9
							C467.6,715.6,467.2,715.1,466.8,715.3z"/>
						<path id="XMLID_672_" class="st8" d="M457.9,733.2c-3.9,2.3-8.6,4.7-10.1,9.4c-0.5,1.4-0.6,3.3,0.7,4.3c1,0.8,2.5,0.9,3.5,0
							c0.1-0.1,0.1-0.4,0-0.5c-1-0.8-2.2-1.2-1.9-2.8c0.4-1.6,1.8-3,2.8-4.3c1.7-2.1,3.4-3.9,5.4-5.6
							C458.6,733.5,458.2,733,457.9,733.2z"/>
						<path id="XMLID_671_" class="st8" d="M474,698.9c0.2-0.2-0.1-0.6-0.4-0.4c-1.3,1.2-2.9,3-3.1,4.8c-0.1,1.3,1,2.7,2.4,2.6
							c0.3,0,0.5-0.3,0.5-0.6c-0.2-1.2-1.7-1-1.3-2.6C472.4,701.2,472.9,700,474,698.9z"/>
						<g id="XMLID_669_">
							<path id="XMLID_670_" class="st5" d="M461.3,706.9c-1.1,0.5-2.3,1.2-3.1,2.1c-0.4,0.5-0.6,1.1-0.9,1.7c-0.1,0-0.1,0-0.2,0
								c-3.7,1.8-8,3.2-11.2,5.9c-0.3-0.5-0.6-0.9-0.6-1.4c0.1-3.6,4-5.3,6.5-7.1c2.8-2.1,5.8-4.2,9-5.9c0.1-0.1,0-0.3-0.1-0.3
								c-3.4,1.3-6.8,3-10.1,4.9c-0.3-1.6-0.2-3.5,0.2-4.9c0.2-0.9,1.4-5.3,2.7-5.4c0.4,0,0.4-0.6,0-0.6c-2-0.2-3.5,2.7-4.2,4.1
								c-0.1,0.3-0.3,0.6-0.4,0.9c-0.1-0.3-0.4-0.5-0.7-0.5c-1.2-0.3-0.5-2.9-0.4-3.8c0.2-2.3,1.5-4.1,3.2-5.6
								c0.2-0.2-0.1-0.7-0.4-0.5c-1.2,0.8-2.5,1.6-3.4,2.8c-1,1.4-1.2,3.1-1.6,4.8c-0.4,2-0.4,5.2,2.6,4.5c-0.5,1.8-0.7,3.7-0.7,5.6
								c0,0.2,0,0.4,0.1,0.5c-0.8,0.5-1.5,1-2.3,1.5c-1.8,1.3-3.6,2.7-4.1,5c-0.3,1.7,0.3,3.6,2,4.2c-1.7,2.4-1,5.3,1.2,6.9
								c-2.5,2-4.7,4.3-6.8,7c-2.4,3.2-1.9,8.1,2.5,9c0.9,0.2,1.5-0.8,0.9-1.5c-3.8-4,0.4-8.2,3.6-11.2c3.4-3.2,7-6.1,10.3-9.3
								c0.2-0.2,0-0.4-0.2-0.3c-3.1,1.5-6,3.1-8.7,5.1c-0.1-0.1-0.2-0.2-0.3-0.4c-0.9-1.2-2-2.1-1.1-3.9c0.4-0.9,1.4-1.6,2.2-2.2
								c3-2.6,6.5-4.3,9.7-6.7c-0.4,0.5-0.8,1-1.1,1.6c-0.9,2.1,2.4,4.4,4.1,2.9c0.2-0.2,0.2-0.6,0-0.8c-0.5-0.6-1.1-0.4-1.7-0.7
								c-1.5-0.7-0.1-1.9,0.3-2.7c0.9-1.7,1.6-3.3,3.3-4.4C461.9,707.2,461.6,706.8,461.3,706.9z"/>
						</g>
						<path id="XMLID_668_" class="st8" d="M472.3,682.3c-1.4,1.3-3.5,1-4.9,2.2c-1,0.9-2.1,2.4-2.6,3.6c-0.6,1.5-1.1,3,0,4.4
							c0.9,1.1,2.1,1.2,2.9,0.1c0.3-0.4,0.3-1.2,0-1.6c-0.9-1.3,0.3-3.2,0.9-4.5c0.8-1.9,2.8-2.3,4.1-3.8
							C473,682.4,472.6,682,472.3,682.3z"/>
						<path id="XMLID_667_" class="st8" d="M482.2,681.4c-2,0.3-3.4,2-4.1,3.8c-0.6,1.7-1.2,4.7,1.4,4.9c1.4,0.1,1.6-1.9,0.5-2.4
							c0,0,0-0.1,0-0.2c0.1-0.2,0-0.5,0.1-0.7c0.1-0.6,0.2-1.1,0.4-1.6c0.3-1.1,0.9-2.7,1.9-3.3
							C482.7,681.7,482.5,681.4,482.2,681.4z"/>
						<path id="XMLID_666_" class="st8" d="M487.6,690.8c-1.8,1.7-3.9,2.1-5.1,4.4c-1,2-2.2,4.4-2.6,6.6c-0.5,2.9,0.3,6.8,4,6.1
							c1.1-0.2,1.1-1.7,0.3-2.2c-2.8-1.8-1.9-4.3-1-7.1c0.5-1.5,0.8-3.1,1.9-4.4c0.9-1.1,2.1-1.8,3-3
							C488.3,690.9,487.9,690.5,487.6,690.8z"/>
						<g id="XMLID_664_">
							<path id="XMLID_665_" class="st7" d="M435.4,755.1c-1.2,0-2.5,0.3-3-1.2c-0.2-0.7-0.1-1.9,0-2.7c0.2-2.2,0.6-4.7,2.2-6.4
								c0.3-0.3-0.1-0.9-0.5-0.7c-1.3,0.9-2.2,2-2.8,3.4c-0.1,0-0.2-0.1-0.3-0.1c-3.7-0.3-0.4-9.7,0.9-11.3c0.2-0.2-0.1-0.5-0.3-0.3
								c-1.3,1.1-2.3,1.7-3.1,3.3c-0.9,1.8-1.2,3.7-1.4,5.7c-0.3,3.1,0.3,4.8,3.2,5.9c-0.1,0.6-0.2,1.2-0.2,1.8
								c-0.3,3.8,1.5,5.6,5.4,5.3C437.2,757.7,437.2,755.1,435.4,755.1z"/>
						</g>
						<g id="XMLID_662_">
							<path id="XMLID_663_" class="st7" d="M445.5,755.4c-1.1,0-2.1,0.3-3.1,0.5c-0.4,0.1-1.1,0.3-1.5,0.2c-0.6-0.2-0.4-0.2-0.3-1
								c0.2-1.7,1-2.5,1.7-3.9c0.7-1.3,1.1-2.9,2.6-3.5c0.3-0.1,0.5-0.7,0.1-0.8c-1.7-0.9-3,1.1-3.7,2.4c-1.3,2.1-2.7,3.6-3.2,6.2
								c-0.8,4.5,5.1,3.6,7.7,3.1C447.6,758.1,447.2,755.3,445.5,755.4z"/>
						</g>
						<g id="XMLID_660_">
							<path id="XMLID_661_" class="st7" d="M425.2,764.3c-2.1-0.6-7.8,3.6-7.9-0.3c-0.1-2.2,0.7-3.8,2-5.5c0.6-0.8,1.4-2.3,2.4-2.7
								c0.6-0.2,0.5-1.2-0.2-1.1c-1.8,0.1-3.6,2.5-4.6,3.7c-1.6,1.9-2.5,4.6-2.2,7.1c0.6,5,9.9,4,11.3,0.3
								C426.2,765.1,425.7,764.5,425.2,764.3z"/>
						</g>
						<g id="XMLID_658_">
							<path id="XMLID_659_" class="st7" d="M510,589.7c-1.6,1.2-3.1,2.6-3.8,4.4c-0.8-0.5-1.7-0.8-2.6-1.1c0.2-4.5,1.9-9.2,4.2-13
								c0.2-0.4-0.3-0.8-0.6-0.5c-3.6,4.2-5.4,8.7-6.3,14.2c-0.1,0.6,0,1.3,0.6,1.5c1.5,0.7,2.8,1.4,4.3,1.5c0.1,1.6,0.8,3.1,2.1,4
								c0.3,0.3,0.9,0.2,1.3,0c0.1,0,0.1-0.1,0.2-0.1c0.2-0.1,0.4-0.4,0.4-0.7c0-0.6-0.2-0.8-0.6-1.3c-0.7-0.8-1.2-1.3-1.2-2.5
								c-0.1-2.1,1.5-4.1,2.5-5.9C510.8,589.9,510.4,589.5,510,589.7z"/>
						</g>
						<path id="XMLID_657_" class="st8" d="M504.7,602.7c-0.2-1.2-0.2-2.9,0.6-3.8c0.3-0.4-0.1-1-0.5-0.7c-1.6,1.1-2.7,2.5-2.6,4.5
							c0.1,1.6,1,4.6,3,4.3c0.7-0.1,1.1-0.6,1-1.3C506.1,604.6,504.9,603.9,504.7,602.7z"/>
						<g id="XMLID_655_">
							<path id="XMLID_656_" class="st7" d="M503.9,614.1c-0.4-1.2-0.4-2.6,0.4-3.7c0.1-0.2-0.1-0.3-0.3-0.2c-1.1,1.1-1.8,2.4-1.6,4
								c0.1,1.2,1,3.5,2.6,3c0.2-0.1,0.4-0.3,0.4-0.6C505.3,615.7,504.2,615,503.9,614.1z"/>
						</g>
						<path id="XMLID_654_" class="st8" d="M506.2,621.3c0.3-0.4-0.3-0.9-0.7-0.7c-1.9,1.1-4.2,3.5-4.4,5.8
							c-0.2,1.8,1.3,3.5,3.1,3.1c0.3-0.1,0.6-0.3,0.6-0.6c0-0.1,0-0.1,0-0.2c0.1-0.3,0-0.6-0.3-0.7c-0.4-0.2-0.9-0.1-1.3-0.4
							c-0.9-0.6-0.3-1.8,0.1-2.6C504.3,623.6,505.4,622.5,506.2,621.3z"/>
						<path id="XMLID_653_" class="st8" d="M501.8,635.2c-0.3,0-0.7,0.1-1,0.1c-0.4-0.1-0.8-0.6-1-1c-0.4-1.1,0.4-2.2,1-3.1
							c0.2-0.2-0.2-0.4-0.4-0.2c-0.9,1.2-2.1,2.9-1.1,4.3c0.5,0.8,2.3,1.7,2.8,0.4C502.2,635.4,502,635.2,501.8,635.2z"/>
						<g id="XMLID_651_">
							<path id="XMLID_652_" class="st5" d="M496.9,640.4c-7.5,5.5-16.4,10.5-22.8,17.3c-0.6,0.6,0.2,1.6,0.9,1.2
								c8-4.8,14.9-12.1,22.3-17.8C497.7,640.8,497.3,640.1,496.9,640.4z"/>
						</g>
						<g id="XMLID_649_">
							<path id="XMLID_650_" class="st5" d="M500.2,645.6c-5.6,6.5-12,12-18.8,17.1c-0.8,0.6,0,2,0.8,1.4c7-5.1,13-11.2,18.4-18
								C501,645.8,500.5,645.3,500.2,645.6z"/>
						</g>
						<g id="XMLID_647_">
							<path id="XMLID_648_" class="st5" d="M503.4,649.6c-9.4,7.3-18.9,14.5-28.2,22c-0.8,0.6,0.3,1.7,1.1,1.1
								c9.4-7.3,18.5-15,27.7-22.5C504.5,649.9,503.9,649.3,503.4,649.6z"/>
						</g>
						<path id="XMLID_646_" class="st8" d="M517.7,641.8c-0.6-0.6-1.3-0.4-2-0.4c-0.7,0-1.5-0.1-2.2-0.4c-1.4-0.8-1.8-3.2,0-3.9
							c0.4-0.1,0.2-0.8-0.2-0.7c-1.9,0.6-2.5,3-1.7,4.6c0.6,1.1,1.6,1.8,2.8,2.1c1,0.3,2.9,0.6,3.4-0.6
							C517.9,642.3,517.9,642,517.7,641.8z"/>
						<path id="XMLID_645_" class="st8" d="M532.1,557.6c0.3-0.2-0.1-0.7-0.4-0.5c-2.5,1.6-5.4,4.4-5.3,7.6c0.1,2.1,2.5,4.8,4.7,3.6
							c0.8-0.4,0.5-1.8-0.5-1.7c-1.3,0.1-2.5,0.1-2.9-1.4c-0.4-1.2,0.3-2.7,0.9-3.7C529.6,560,530.8,558.7,532.1,557.6z"/>
						<path id="XMLID_644_" class="st8" d="M531.4,574.6c-0.7,0-1.6,0-1.8-0.8c-0.2-0.7,0.4-1.5,1.1-1.8c0.5-0.2,0.2-1-0.3-1
							c-1.6,0-2.7,1.7-2.3,3.2c0.4,1.5,2.3,2.5,3.7,1.7C532.3,575.6,532.1,574.6,531.4,574.6z"/>
						<path id="XMLID_643_" class="st8" d="M532.2,598.7c-0.3,0.2-0.5,0.4-0.7,0.6c0,0,0-0.1-0.1-0.1c-0.4-0.6-0.7-0.8-1.3-0.9
							c-0.6-2.3,0.2-4.9,2.1-6.4c0.6-0.5,0.1-1.5-0.6-1c-0.8,0.5-1.5,1.1-2.1,1.9c-0.8-0.2-1.4-0.1-2.4-0.4
							c-1.3-0.4-1.2-0.8-1.3-2.1c-0.1-0.9,0.2-1.8,0.4-2.6c0.7-3,2.4-5.6,4.7-7.6c0.4-0.3-0.1-0.9-0.5-0.7
							c-3.6,2.4-6.1,6.1-6.6,10.4c-0.2,1.5-0.4,3.2,0.9,4.2c0.9,0.7,2.3,1,3.6,0.9c-0.1,0.4-0.3,0.9-0.3,1.3
							c-0.2,1.8,0.2,4.7,2.5,4.1c-0.7,0.9-1.1,2-1.1,3.1c-0.1,1.5,0.2,4.4,2.1,4.6c0.3,0,0.6-0.2,0.7-0.5c0.3-1.2-0.8-2.3-0.9-3.6
							c-0.1-1.6,0.4-3.2,1.5-4.4C533.1,599.1,532.7,598.4,532.2,598.7z"/>
						<path id="XMLID_642_" class="st8" d="M524.9,614.8c-1.9-1.4-4.7,0.8-3.8-3.4c0.5-2.3,1.7-4.8,3-6.6c0.1-0.2-0.1-0.3-0.3-0.2
							c-2.1,2.3-5.8,6.1-5,9.6c0.5,2.3,4.5,3.9,6.3,2.3C525.6,615.9,525.4,615.2,524.9,614.8z"/>
						<path id="XMLID_641_" class="st8" d="M531.3,619.4c-0.4-0.9-1.8-1-2.2-2.1c-0.5-1.3,0.3-2.6,1.5-3.1c0.4-0.2,0.1-0.8-0.3-0.7
							c-1.8,0.3-3.2,2.1-2.9,4c0.2,1.4,2.4,4.1,3.8,2.6C531.4,619.9,531.4,619.6,531.3,619.4z"/>
						<path id="XMLID_640_" class="st8" d="M532.7,629.1c-0.5-0.8-1.2-1.2-1.4-2.2c-0.3-1,0-2,0.7-2.7c0.4-0.4-0.1-1-0.6-0.7
							c-1.2,0.8-1.8,2-1.9,3.4c-0.1,1.4,0.5,3.3,2,3.7C532.4,630.8,533.1,629.9,532.7,629.1z"/>
						<path id="XMLID_639_" class="st8" d="M527.6,640.3c-1.6,1.4-2.8,3.2-3.1,5.3c-0.3,1.5,0,3.6,1.8,4c0.5,0.1,1-0.1,1.3-0.5
							c0-0.1,0.1-0.1,0.1-0.2c0.2-0.4,0.1-1-0.3-1.3c-2-1.1,0.1-5.4,1-6.8C528.8,640.4,528,640,527.6,640.3z"/>
						<path id="XMLID_638_" class="st8" d="M519.6,648.2c-0.7,1-1.2,1.9-1.3,3.1c-0.1,1,0,2.5,0.9,2.9c0.4,0.2,0.9,0,1-0.4
							c0.2-0.8-0.3-1.5-0.4-2.3c-0.1-1-0.1-2,0.5-2.9C520.7,648.2,520,647.7,519.6,648.2z"/>
						<g id="XMLID_636_">
							<path id="XMLID_637_" class="st7" d="M520.8,557.3c-1.7,1-2.8,2.6-3.2,4.5c-0.3,1.6-0.2,4.3,1.4,5.1c0.6,0.3,1.3-0.1,1.3-0.7
								c-0.1-1.4-1-2.4-0.9-3.9c0.1-1.6,0.9-3.1,2.1-4.2C522,557.7,521.4,557,520.8,557.3z"/>
						</g>
						<g id="XMLID_634_">
							<path id="XMLID_635_" class="st7" d="M517.7,583c-0.4-0.5-0.6-1.1-0.7-1.7c-0.2-1.3,0.2-2.6,1.2-3.3c0.5-0.3,0.1-1.1-0.5-0.8
								c-1.4,0.8-2.2,2.3-2.2,3.9c0,1.2,0.7,3.6,2.3,3.5c0.3,0,0.6-0.3,0.5-0.7C518.3,583.5,518,583.3,517.7,583z"/>
						</g>
						<g id="XMLID_632_">
							<path id="XMLID_633_" class="st7" d="M535,540.9c0.2-0.2,0-0.5-0.3-0.4c-1.3,0.3-2.3,1.2-3.1,2.3c-0.1-0.1-0.2-0.2-0.4-0.2
								c-1.3-0.4-2.3-0.4-2.4-2.2c0-1.1,0.5-2.3,1-3.2c0.8-1.6,1.8-2.9,3.1-4.1c0.2-0.2-0.1-0.6-0.4-0.5c-2.7,1.6-5.4,4.4-5.6,7.7
								c-0.1,2,1.7,4.8,3.8,4.2c-0.1,0.2-0.2,0.4-0.2,0.7c-0.3,1.1-0.4,4.5,1.7,3.8c0.2-0.1,0.4-0.2,0.5-0.5l0-0.2
								c0-0.2,0-0.4-0.2-0.5c-1.3-0.7-0.4-2.7,0-3.7C533.2,542.8,534.2,541.9,535,540.9z"/>
						</g>
						<path id="XMLID_631_" class="st8" d="M544.3,532.7c-1.3,0.3-2.3,1.3-2.8,2.6c-0.3,0.8-0.6,3.2,0.7,3.4c0.2,0,0.4,0,0.5-0.2
							c0.3-0.8-0.3-1.6-0.1-2.5c0.2-1,0.9-1.9,2-2.2C545.2,533.5,544.9,532.5,544.3,532.7z"/>
					</g>
				</g>
				<g id="XMLID_26_">
					<path id="XMLID_29_" class="st24" d="M475.2,674.8c0.2,0.3,0.4,0.5,0.6,0.8c0.8-0.7,1.5-1.5,2.1-2.3
						C477.1,673.8,476.1,674.3,475.2,674.8z"/>
					<path id="XMLID_196_" class="st24" d="M475.8,668.4c-1,0.5-2.1,0.8-3.2,0.6c-1.6-0.3-2.9-2.3-2-3.6c-3.4,2.7-6,6.4-7.4,10.5
						c4,1,8.3,0.6,12-1.2C474,672.7,474.2,669.8,475.8,668.4z"/>
					<path id="XMLID_277_" class="st24" d="M475.8,668.4c0.5-0.2,1-0.5,1.4-0.7C476.7,667.8,476.2,668,475.8,668.4z"/>
					<path id="XMLID_280_" class="st24" d="M449.6,670.4c0.5-0.3,0.9-0.6,1.3-1C450.4,669.7,450,670.1,449.6,670.4z"/>
					<path id="XMLID_302_" class="st4" d="M509.7,514.3c-3.5-0.7-7.2-1.6-10.5-2.5c0.6-2.5,2.2-5.2,4.2-7.8
						c-8.6,3.1-16.5,7.3-22.5,14c5.3-1.4,10.1-2.4,15.6-2.6c-8,3.1-16.1,5.9-24.4,8.1c-22.6,24.4-33,58.5-34.7,91.7
						c-0.4,7.3-0.4,14.9-3.4,21.7c-0.5,1.2-1.1,2.4-1,3.6c0.4,3.5,5.3,3.8,8.8,3.2c-3.1,0.5-6.4,1.2-8.3,3.6c-2,2.4-1.3,7,1.8,7.4
						c-1.5,1-3,2-4.5,3.1c-0.6,15.6-3.9,30.3-15.2,42.4c-3.4,3.4-1.7,8.5,3.4,10.2c2.2,0.3,4.3,0.4,6.3,0.2c1.5-1.1,3.1-2.1,4.7-2.8
						c-1.7,0.4-3.5,0.3-5.2-0.2c-0.7-0.2-1.5-0.6-1.7-1.3c-0.1-0.6,0.2-1.1,0.5-1.6c1.1-1.7,2.6-3.3,4.2-4.5c-3,0.4-6.1,0.3-9.1-0.3
						c3-9.1,13.5-13,22.7-15.7c-2,0.5-4.1-0.1-5.6-1.4c1.8-0.8,3.2-2.3,4.2-4c-1.8,1.8-5.2,0-5.8-2.5c-0.5-2.5,0.8-5,2.3-7.1
						c1.7-2.4,3.6-4.7,5.8-6.8c-1.6,2.3-1,5.7,1.1,7.5c1.7,1.4,4.3,1.5,6.2,0.4c0.4-0.4,0.8-0.7,1.3-1c-0.4,0.4-0.8,0.7-1.3,1
						c-3.4,2.9-5.1,7.9-3.1,11.9c0.8,1.5,2.1,2.6,3.7,3.3c-4.9-6.6-0.8-12.2,5.5-19.3c-7.3-3.5,0-10.8,4.9-12.9
						c-19.6-9.1,10-49.5,17.8-56.6c-14.6-0.2,0.5-11.7,3.4-15.4c-10-0.3-17,1.8-13.1-10.6c3.1-9.9,13.3-16.8,17.4-25
						c-1.2-0.3-2.2-0.9-3.2-1.2c1.8-1.3,3.9-4.2,5.8-5.6c-2.8-1.2-6.2-1.4-9.2-2.9C484.3,525.8,500.4,519.9,509.7,514.3z"/>
				</g>
			</g>
		</g>
		<g id="XMLID_14_">
			<path id="XMLID_15_" class="st7" d="M946.9,633.1c1.6-3.2,3.1-6.2,6.3-8.2c2.6-1.6,4.4-3.3,6.6-5.5c3.5-3.4,9.3-4.8,13.8-6.4
				c5.9-2.1,11.9-4.5,18-5.8c4.2-0.9,9-1,12.8-3.3c3.6-2.2,7.1-3.5,11-5.1c1.3-0.6,5.8-1.7,5.6-3.6c-2.4-0.2-4.9,0.9-7.2,1.3
				c-6.6,1.3-13.2,1.6-19.8,2.4c-5.4,0.7-10.8,1.5-16,2.8c-3.5,0.8-6.4,2.7-9.4,4.6c-8.5,5.3-17.3,9.2-26.5,13.3
				c-4.1,1.8-8.4,4.6-12.8,4.4c-2.9-0.1-5.5,1.2-8.5,0.5c-1.5-0.3-3-0.6-4.5-0.5c-1.5,0.1-3.1,0.7-4,1.9c-0.7,0.9-1,2-1.8,2.8
				c-0.8,0.7-1.8,1.1-2.7,1.7c-1.4,1.2-1.8,3.5-0.8,5c0.7-1.4,1.7-2.5,3-3.2c0.7-0.4,1.5-0.7,2.3-0.5c1.4,0.3,2.2,2.1,1.4,3.3
				c-1.7,2.7-6.2,4.4-8.8,6.4c-4.4,3.2-8.9,6.3-13.4,9.4c-3.7,2.5-7.7,4.6-11.1,7.6c-5.2,4.7-9.5,11.2-13.6,16.9
				c-2.7,3.6-5.5,7.3-7.8,11.2c-0.9,1.6-2.8,3.9-2.8,5.8c2.3,0.2,3.6-2.9,5.5-3.6c1.6,1.6,7.8-3.9,9.3-5
				c5.9-4.7,10.8-10.8,16.5-15.7c6.9-6,13.3-12.4,21.1-17.3c5.3-3.3,10.9-6.8,17.1-7.8c2.2,1.8,7.5,1.9,10.3,2.2c3,0.4,6,0.6,9,0.6
				c3.1,0,4.5,0.6,7.4,1.8c2.6,1.1,5.5,2.5,8.3,2.6c-1.1-2.2,0.2-1.5,2.3-2.1c0.8-0.2,1.4-1,2-1.2c1.4-0.5,3.1-0.4,4.6-0.9
				c0-1.3-4.7-2.4-6-2.3c0.3-1.3,0.1-1.5-1-1.9c-2.1-0.8-5.2-0.6-7.5-1.2C951,639.3,949.9,635.7,946.9,633.1z"/>
			<path id="XMLID_117_" class="st7" d="M587.8,837.5c-1.1-2.3-2.3-4.5-4.6-6c-1.9-1.2-3.2-2.4-4.8-4c-2.5-2.5-6.8-3.5-10.1-4.7
				c-4.3-1.5-8.6-3.3-13.1-4.2c-3.1-0.6-6.5-0.7-9.3-2.4c-2.6-1.6-5.1-2.6-8-3.7c-1-0.4-4.2-1.2-4.1-2.6c1.7-0.1,3.6,0.6,5.3,1
				c4.8,1,9.6,1.2,14.4,1.8c3.9,0.5,7.8,1.1,11.7,2c2.5,0.6,4.7,2,6.9,3.4c6.2,3.9,12.6,6.7,19.3,9.7c3,1.3,6.1,3.3,9.3,3.2
				c2.1-0.1,4,0.8,6.2,0.4c1.1-0.2,2.2-0.4,3.3-0.4c1.1,0.1,2.2,0.5,2.9,1.4c0.5,0.6,0.7,1.5,1.3,2c0.5,0.5,1.3,0.8,1.9,1.3
				c1,0.9,1.3,2.5,0.6,3.7c-0.5-1-1.3-1.8-2.2-2.4c-0.5-0.3-1.1-0.5-1.7-0.4c-1,0.2-1.6,1.5-1.1,2.4c1.2,2,4.5,3.2,6.4,4.6
				c3.2,2.3,6.4,4.6,9.7,6.8c2.7,1.8,5.6,3.4,8.1,5.6c3.8,3.4,6.9,8.2,9.9,12.3c1.9,2.6,4,5.3,5.7,8.1c0.7,1.1,2,2.9,2.1,4.2
				c-1.6,0.2-2.6-2.1-4-2.6c-1.1,1.2-5.7-2.8-6.8-3.7c-4.3-3.4-7.9-7.8-12-11.4c-5-4.4-9.7-9-15.4-12.5c-3.8-2.4-7.9-4.9-12.4-5.7
				c-1.6,1.3-5.5,1.3-7.5,1.6c-2.2,0.3-4.4,0.4-6.6,0.4c-2.3,0-3.3,0.4-5.3,1.3c-1.9,0.8-4,1.8-6,1.9c0.8-1.6-0.2-1.1-1.7-1.5
				c-0.6-0.2-1-0.7-1.4-0.8c-1-0.4-2.3-0.3-3.3-0.6c0-0.9,3.4-1.7,4.4-1.7c-0.2-1-0.1-1.1,0.7-1.4c1.5-0.6,3.8-0.4,5.4-0.8
				C584.9,842.1,585.6,839.5,587.8,837.5z"/>
			<path id="XMLID_13_" class="st7" d="M1034.6,771c1.8,0,4.6-1.5,6.2-0.3c0.6,0.5,1,1.1,1.5,1.6c0.6,0.6,1.2,0.9,1.2,1.9
				c-0.4-0.6-1.7-1.1-2.5-0.9c-2.4,0.6,1.2,2.8,2.1,3.4c1.5,1.2,3,2.2,4.7,3c1.7,0.8,3.6,1.1,5.1,2.2c1.6,1.1,2.5,2.9,3.9,4.3
				c1.7,1.8,3.7,3.3,5.2,5.3c1.1,1.4,2.2,2.9,3,4.5c-0.7-0.6-1.9-1.2-2.9-1.6c-1.8-0.7-3-1.5-4.4-2.9c-1.3-1.3-2.2-1.9-3.8-2.8
				c-2.6-1.4-4.7-3.6-7.2-5.1c-1.7-1-3.6-1.9-5.2-3.1c-1.2-0.9-2.1-1.5-3.6-1.8c-1.2-0.2-0.9-0.2-2.1,0.3c-1,0.4-2.1,0.3-3,0.7
				c-1.4,0.5-2.1,1.9-3.2,2.7c-0.9,0.6-2.9,0.4-2.8-1.2c-0.2,0.1-0.6,0.1-0.8,0.2c-0.2-0.2-0.4-0.7-0.5-1c1-1,2.5-1.4,3.3-2.5
				c0.5-0.8,0.7-2,1.6-2.3c-0.9-0.6-1.7-1.7-2.5-2.5c-1.7-1.5-2.8-2.5-4.9-3.4c-3.6-1.5-7.4-2.3-11-3.5c-3.6-1.2-7.2-2.9-10.9-3.8
				c5.6-1,11.4,0.2,17,1.1c1.8,0.3,2.4,0.8,3.8,2.1C1025.2,768.6,1030.1,771.2,1034.6,771z"/>
			<path id="XMLID_119_" class="st7" d="M85.7,712.7c1.8,0,4.6-1.5,6.2-0.3c0.6,0.5,1,1.1,1.5,1.6c0.6,0.6,1.2,0.9,1.2,1.9
				c-0.4-0.6-1.7-1.1-2.5-0.9c-2.4,0.6,1.2,2.8,2.1,3.4c1.5,1.2,3,2.2,4.7,3c1.7,0.8,3.6,1.1,5.1,2.2c1.6,1.1,2.5,2.9,3.9,4.3
				c1.7,1.8,3.7,3.3,5.2,5.3c1.1,1.4,2.2,2.9,3,4.5c-0.7-0.6-1.9-1.2-2.9-1.6c-1.8-0.7-3-1.5-4.4-2.9c-1.3-1.3-2.2-1.9-3.8-2.8
				c-2.6-1.4-4.7-3.6-7.2-5.1c-1.7-1-3.6-1.9-5.2-3.1c-1.2-0.9-2.1-1.5-3.6-1.8c-1.2-0.2-0.9-0.2-2.1,0.3c-1,0.4-2.1,0.3-3,0.7
				c-1.4,0.5-2.1,1.9-3.2,2.7c-0.9,0.6-2.9,0.4-2.8-1.2c-0.2,0.1-0.6,0.1-0.8,0.2c-0.2-0.2-0.4-0.7-0.5-1c1-1,2.5-1.4,3.3-2.5
				c0.5-0.8,0.7-2,1.6-2.3c-0.9-0.6-1.7-1.7-2.5-2.5c-1.7-1.5-2.8-2.5-4.9-3.4c-3.6-1.5-7.4-2.3-11-3.5c-3.6-1.2-7.2-2.9-10.9-3.8
				c5.6-1,11.4,0.2,17,1.1c1.8,0.3,2.4,0.8,3.8,2.1C76.4,710.3,81.3,712.8,85.7,712.7z"/>
			<path id="XMLID_195_" class="st7" d="M83.3,568.2c1.7-0.6,4-2.8,5.8-2.1c0.7,0.3,1.2,0.8,1.9,1.1c0.8,0.4,1.4,0.5,1.7,1.4
				c-0.6-0.5-2-0.6-2.7-0.1c-2.1,1.3,2,2.3,3,2.7c1.8,0.7,3.5,1.2,5.4,1.5c1.9,0.2,3.8,0,5.6,0.6c1.9,0.6,3.3,2.1,5,3
				c2.2,1.2,4.5,2,6.5,3.5c1.4,1,3,2.1,4.2,3.4c-0.8-0.4-2.2-0.6-3.2-0.7c-1.9-0.2-3.3-0.5-5.1-1.5c-1.7-0.9-2.6-1.2-4.4-1.5
				c-2.9-0.5-5.5-2.1-8.4-2.8c-2-0.5-4-0.8-5.9-1.4c-1.4-0.5-2.4-0.9-3.9-0.6c-1.2,0.2-0.9,0.1-1.9,0.9c-0.8,0.7-1.9,0.9-2.7,1.5
				c-1.2,0.9-1.5,2.4-2.3,3.5c-0.7,0.9-2.7,1.2-3.1-0.3c-0.1,0.2-0.5,0.3-0.7,0.5c-0.3-0.2-0.6-0.6-0.8-0.8c0.7-1.3,2-2,2.4-3.4
				c0.2-0.9,0.1-2.1,0.9-2.7c-1.1-0.3-2.1-1.2-3.1-1.7c-2.1-1-3.4-1.5-5.7-1.8c-3.8-0.4-7.7-0.1-11.5-0.2c-3.8-0.1-7.7-0.7-11.5-0.4
				c5.1-2.6,11-3.1,16.6-3.9c1.8-0.3,2.5,0.1,4.3,0.9C73.6,568.6,79,569.6,83.3,568.2z"/>
			<path id="XMLID_11_" class="st7" d="M1195.4,804c-1.8,0-4.6-1.5-6.2-0.3c-0.6,0.5-1,1.1-1.5,1.6c-0.6,0.6-1.2,0.9-1.2,1.9
				c0.4-0.6,1.7-1.1,2.5-0.9c2.4,0.6-1.2,2.8-2.1,3.4c-1.5,1.2-3,2.2-4.7,3c-1.7,0.8-3.6,1.1-5.1,2.2c-1.6,1.1-2.5,2.9-3.9,4.3
				c-1.7,1.8-3.7,3.3-5.2,5.3c-1.1,1.4-2.2,2.9-3,4.5c0.7-0.6,1.9-1.2,2.9-1.6c1.8-0.7,3-1.5,4.4-2.9c1.3-1.3,2.2-1.9,3.8-2.8
				c2.6-1.4,4.7-3.6,7.2-5.1c1.7-1,3.6-1.9,5.2-3.1c1.2-0.9,2.1-1.5,3.6-1.8c1.2-0.2,0.9-0.2,2.1,0.3c1,0.4,2.1,0.3,3,0.7
				c1.4,0.5,2.1,1.9,3.2,2.7c0.9,0.6,2.9,0.4,2.8-1.2c0.2,0.1,0.6,0.1,0.8,0.2c0.2-0.2,0.4-0.7,0.5-1c-1-1-2.5-1.4-3.3-2.5
				c-0.5-0.8-0.7-2-1.6-2.3c0.9-0.6,1.7-1.7,2.5-2.5c1.7-1.5,2.8-2.5,4.9-3.4c3.6-1.5,7.4-2.3,11-3.5c3.6-1.2,7.2-2.9,10.9-3.8
				c-5.6-1-11.4,0.2-17,1.1c-1.8,0.3-2.4,0.8-3.8,2.1C1204.8,801.5,1199.9,804.1,1195.4,804z"/>
		</g>
	</g>
</g>
</svg>
